<svg id="Layer_1" data-name="Layer 1" xmlns="http://www.w3.org/2000/svg" viewBox="0 0 491 397"><defs><linearGradient id="linear-gradient" x1="-435.64" y1="582.08" x2="-435.51" y2="581.72" gradientTransform="matrix(490.92 0 0 -284.28 214094.71 165651.11)" gradientUnits="userSpaceOnUse"><stop offset="0" stop-color="#6170d9"/><stop offset=".35" stop-color="#6297d9"/><stop offset="1" stop-color="#b1cbf4"/></linearGradient><linearGradient id="linear-gradient-2" x1="-432.18" y1="581.82" x2="-432.18" y2="580.82" gradientTransform="matrix(101.21 0 0 -156.6 44003.24 91128.92)" gradientUnits="userSpaceOnUse"><stop offset="0" stop-color="#8ecfee"/><stop offset="1" stop-color="#dbeef7"/></linearGradient><linearGradient id="linear-gradient-3" x1="-428.69" y1="579.36" x2="-428.5" y2="578.47" gradientTransform="matrix(56.16 0 0 -55.81 24336.26 32446.79)" gradientUnits="userSpaceOnUse"><stop offset="0" stop-color="#b8d5ee"/><stop offset="1" stop-color="#c3def3"/></linearGradient><linearGradient id="linear-gradient-4" x1="-422.41" y1="581.5" x2="-422.41" y2="580.5" gradientTransform="matrix(30.99 0 0 -123.19 13387.75 71664.46)" gradientUnits="userSpaceOnUse"><stop offset="0" stop-color="#98d2f0"/><stop offset=".48" stop-color="#a1d0ef"/><stop offset="1" stop-color="#a1b3e0"/></linearGradient><linearGradient id="linear-gradient-5" x1="-413.71" y1="559.76" x2="-413.71" y2="558.76" gradientTransform="matrix(19.18 0 0 -7.96 8188.27 4563.67)" gradientUnits="userSpaceOnUse"><stop offset="0" stop-color="#ee735e"/><stop offset="1" stop-color="#f8ac97"/></linearGradient><linearGradient id="linear-gradient-6" x1="-452.15" y1="566.82" x2="-452.03" y2="566.53" gradientTransform="matrix(-14.26 9.26 -13.62 -20.97 1313.88 16160.27)" gradientUnits="userSpaceOnUse"><stop offset="0" stop-color="#00f8ff"/><stop offset="1" stop-color="#0ff"/></linearGradient><radialGradient id="radial-gradient" cx="-433.99" cy="578.13" r=".61" gradientTransform="scale(93) rotate(83.47 107.12 532.992)" gradientUnits="userSpaceOnUse"><stop offset="0" stop-color="#4575d6"/><stop offset=".35" stop-color="#00a8ec"/><stop offset=".66" stop-color="#00c7f4"/><stop offset="1" stop-color="#02fdfe"/></radialGradient><radialGradient id="radial-gradient-2" cx="-439.34" cy="578.18" r=".58" gradientTransform="matrix(-50.3 48.88 -66.86 -68.8 16646.57 61281.71)" gradientUnits="userSpaceOnUse"><stop offset="0" stop-color="#03ffff"/><stop offset="1" stop-color="#04ffff" stop-opacity=".75"/></radialGradient><style>.cls-12,.cls-13,.cls-17,.cls-18,.cls-28,.cls-29,.cls-5,.cls-7,.cls-8{fill-rule:evenodd}.cls-5{fill:#393a6d}.cls-7{fill:#2c303c}.cls-8{fill:#c0c4cc}.cls-12{fill:#6782ba}.cls-13{fill:#7d441c}.cls-17{fill:#f6f2ed}.cls-18{fill:#2a1202}.cls-28{fill:#12fdfd}.cls-29{fill:#592605}</style></defs><path id="Oval" d="M192.28 386c93.94 0 298.64-101.29 298.64-195.23s-161.08-76.83-293.58-85.13S0 93.62 0 187.56 98.34 386 192.28 386z" fill="url(#linear-gradient)" fill-rule="evenodd"/><path id="Fill-2" d="M200.75 311.61c-5.49-5.28-1.79-21.41 1.69-26.05 7-14.09 8.42-30.89 7.17-46.41 0-2.51-2.51-5.76-5.11-3.88-4.11 2.72-8.85 4.2-12.1 8.16-9.06 9.42-20.17 20-33.85 20.93-20.46.24-41.68-9.67-54.41-25.8-9 4.14-11.81-10.6-17.89-14.9-4-4.38-4.29-6.76-1.78-12.1.85-5 24.07-24.94 28-16.54 11 14.79 35.46 27.65 51.26 13.95 11.11-13.23 16.12-30.83 25.47-45.28 4.69-6.61 13.54-8.75 20.08-13.23 2.37-1.3 2-4.16 3.57-6.32-3.4-4.22.56-16.48 6.66-16.69 1.31-.27 3-1.28 3.5.41 2 3.53 11.52 17 12.38 17.52 6.16 5.17 13.18 9.48 19 15.34 4.67 2.9 3.77 12.2 9.24 10.28a8.71 8.71 0 005.73-3.88 240.21 240.21 0 0131.13-34.61c2.06-1.36 3.11-4.49 5.93-4.35 12.33 2.46 9.72 9.3 11.93 19.13.39 1-.08 2.3-.18 3.85 25.65 8.2 34.64 14.61 49.22 37.62 12.92 23.39 33.31 51 30.08 78.6.85 11.92 14.44 33.64 3.66 42.05-3.53 1.45-1-9.58-11.06-14.61-7.68-6.17-21-11.22-28.63-3-.8 1.08-1.55 2.37-3.28 1.61-2.69-1-5-4.59-4.19-7.37s.13-5.26-.76-7.88c-3.86-12.6-7.26-25.47-13.33-37.26-3.12-4.42-4.48-11.43-9.76-13.62-2.19.7-.34 2.93-.37 4.37.52 6.88-2.12 13.64-3.4 20.3-2.77 14.89 4.12 29.12 5.23 43.88 2.25 8.67 2.37 15-5.25 21 .18 4.88 5.75 13.06-.35 16-12.82 11.33-41.56 8.93-58.41 10.12-21.14-1.76-44.84-3.49-62.77-15.58-2.3-1.37-3.38-14.17-4.05-15.76z" fill="#393a6e" fill-rule="evenodd"/><path id="Combined-Shape" d="M377.43 240q12.57 36.5 13.67 46.39.48 4.29-3.67 6.67a60.17 60.17 0 00-6.75-3.88c-5.72-2.73-11.39-1.51-17 .32-1.09.36-1.59 1.44-2.24 2.32a2 2 0 00-.17.23l-.17.24c-.7.93-1.46 1.79-2.94 1.14-2.69-1-5-4.59-4.19-7.37s.13-5.26-.76-7.88c-1.48-4.39-2.51-8.94-4-13.34-1.84-5.42-3.59-10.88-5.75-16.19q2.35-15.65 5.72-20.65 7.08-10.37 28.25 12z" fill="#46497d" fill-rule="evenodd"/><path id="Combined-Shape-2" data-name="Combined-Shape" d="M223 127.86c2 3.53 11.52 17 12.38 17.52 6.16 5.17 13.18 9.48 19 15.34 4.68 2.91 3.76 12.19 9.24 10.28a8.71 8.71 0 005.73-3.88 240.21 240.21 0 0131.13-34.61c2.06-1.36 3.11-4.49 5.93-4.35 12.36 2.48 9.71 9.3 11.93 19.13.39 1-.08 2.3-.18 3.85 23 7.6 33 12.71 46.58 33.67-7.55 15.37-32.6 12.64-39.44 15.51-11.5 3.23-18.89 30.13-56.95 33.73-15.91 1.26-41.59 1.58-52.93-14.05-4.12-4.77-7.7-9.18-10.63-6.48-36 41.17-73 39.51-109.3-13.2 4.28-3.24 12.06-11.37 17-5.3 11 14.79 35.46 27.66 51.26 13.95 11.12-13.23 16.12-30.83 25.47-45.28 5.73-9.08 20.68-8.46 23.65-19.55-3.38-4.2.54-16.48 6.66-16.69 1.29-.27 2.97-1.28 3.47.41z" fill="#46487d" fill-rule="evenodd"/><path id="Path-4" class="cls-5" d="M173.35 215.7q11.39 11.06 14.79 7.13c3.41-3.91-9.11-7.28-16-10.93q-6.98-3.64 1.21 3.8z"/><path id="Path-2" class="cls-5" d="M167.91 244.31C161.39 227.84 148.2 224 152 219s19.09 3.72 20 20.73q.62 11.08-.81 10.94c-.45-.03-2.14-3.47-3.28-6.36z"/><path id="Path-8" d="M125.66 212.7l.36.94c-5.64 1.62-14.64 13-19.08 20.54l-.85-.53c4.57-7.65 13.24-18.91 19.57-20.95z" fill="#2c303c"/><path id="Path-9" class="cls-7" d="M236.75 146.75q-6.3-5.16-9-7.05c-4.33-3-8-4.86-8.82-6.26-1.54-2.61 2.5-4.43 4-5.91q5.25-5.07 12.34 6.94z"/><path id="Path-10" class="cls-7" d="M290.17 143.36q18.49-8.07 20.56-9.45t-8.26-6q-13.32 13.2-13.38 13.37a8.22 8.22 0 001.08 2.08z"/><path id="Fill-44" class="cls-7" d="M211.64 309.65c27.3 10.18 57.35 12.48 86.07 8.07 9.22-1.42 18.26-3.68 27.28-6-5.36 1.38-10.08 4-15.58 5.15-21.67 4.51-44.85 5.77-66.74 2.13a158.53 158.53 0 01-31.28-8.56c.08-.26.16-.53.25-.79"/><path id="Fill-46" class="cls-7" d="M285.57 166.36c7-7.77 18.69-11.71 27.91-16.57l.3.6c-8.86 6.05-19.46 9.56-28.07 16.11z"/><path id="Fill-48" class="cls-7" d="M242.64 165.46c-7.6-5.3-17.59-7.7-25-13.17l.33-.41c7.84 4.47 19.17 6.67 24.65 13.58"/><path id="Fill-40" class="cls-8" d="M285.5 184.88c.27 3.32-.31 6.7-.58 10.05a43.69 43.69 0 01-1.72 9.93c-.46 1.42-.21 3.07-.25 4.61 0 .55 0 2.93-.38 3.4s-1-1.07-1.14-1.22a.8.8 0 01-.16-.51 53.17 53.17 0 00-.22-5.8c-.64-3.28-1.92-6.13-1.61-9.57a99.22 99.22 0 00-.11-12.55c-.13-3.91-.47-7.81-.61-11.72a9.16 9.16 0 011.86-6.17c1.93.46 4.52 14.49 4.92 19.55z"/><path id="Fill-42" class="cls-8" d="M247.78 164.41c5.15 5.39 2.27 14.13 3.14 20.92 0 7.39 3.73 15.41 1.14 22.52-.6.42 1.45 4.93.32 5.63-2.36-4.84-3-11.72-5-19.33-2.77-8.94-1.14-21.22.4-29.74z"/><path id="Fill-4" d="M300.28 133.41C288.69 144 281.91 152 270.5 166.78c-2.32 3.68-6.38 5.18-10.56 4.78-3.51-14.7-22.27-20.76-30-32.26-17.84-24.72-9.95-26.94-13.48-53.68-7.47-23.24-9-34.48 6.4-55.15C235.42 12 243 15.73 263.19 15c2.9.05 14.55.73 17.35 1.88a57.63 57.63 0 0128 28.88c5.72 15.35-.12 31.71-.14 47.7-1.29 18.33 10.28 24.77-8.12 39.95z" fill="url(#linear-gradient-2)" fill-rule="evenodd"/><path id="Path-50" d="M231.91 109.42c-5.67 5.6 21.41 42.46 29.58 42.46s32.43-43 24.08-52.55-47.99 4.48-53.66 10.09z" fill="url(#linear-gradient-3)" fill-rule="evenodd"/><path id="Combined-Shape-3" data-name="Combined-Shape" d="M305.28 39c13.47 21.11-1.75 47 4.5 69.93 5.74 13.09-7.44 22.52-15.93 30.43-5.47 5.8-7.17 7.93-13.29 14.86C303.85 112.67 302.3 69.11 298.64 31c2.24 2.65 4.44 5.31 6.64 8z" fill="url(#linear-gradient-4)" fill-rule="evenodd"/><path id="Fill-203" class="cls-12" d="M229.43 33.14c-3 9.68-5.8 19-8.69 28.42-.08.26-.52.41-.88.68.2-8.87 5.32-26.65 9.57-29.1"/><path id="Path" class="cls-12" d="M281 29.83c1.61.93 7.88 13.66 9 18.59.94 5 1.33 8.35 1.15 10.16l-4.08-12.47-1.2-3.7c-.62-1.93-4.8-12.41-4.87-12.58z"/><path id="Fill-202" class="cls-13" d="M222.28 92.58c1-10.15-4.17-20.49-.86-30.34 3.2-17 24.14-25 38.28-21.5 11.17 3.4 29.59 14.91 31.26 27.1-1.9 16.73 0 35.22-6.53 50.83C278 125.51 260.61 145 251 137.1c-13.1-12.53-30.1-24.28-28.75-44.52"/><path id="Fill-12" class="cls-13" d="M104.69 194.25c-7.93 3.67-14.36 9.74-20.26 16C75.25 202.17 55.32 206.4 52 197c-2.24-6.61-11.57-14.29-6-21.28-2.5-8.13-5.6-14.52 2.22-12.47-.67-4.27 2.2-7.68 5.44-2.88.62 1.12 3.15 6.63 4.38 7.81-1.15-3.5-3.07-7.93-1.81-10.93 8.07-3 9.92 20.77 20.67 17.49-2.06-3.18-6.34-7.68-2.79-11 3.87-1.13 8.28 6.81 13.81 7.28 11.26 1.81 15.08 12 18.43 21.51-.61.58-1.01 1.47-1.66 1.72z"/><path id="Path-2-2" data-name="Path" class="cls-13" d="M381.73 288.3c5.24 2.55 9.74 6.16 14.27 9.77a7.31 7.31 0 011.67 1.88 12.54 12.54 0 011.11 3.6c.44 1.91.35 4.39 2.41 5.32-.35 3.06 1.08 6.48-.27 9.29-2.85 4.52-6.13 9.72-10.74 12.39-5.8-.31-12-.45-17.24-3.2-2.83-.41-5.53.28-7.56-2.28-2.43.4-5.13 1-6.86-1.47-.79.13-1.87-2.26-2.1-2.76a34.56 34.56 0 01-3.09-11.67c-.67-3.29-2.22-6.36-1.86-9.82-.2-3.92 4.06-4.62 6.7-6.45 3.3-.43 3.07-5.06 6.66-5.14 5.66-.82 11.61-2.7 16.9.54z"/><path id="Combined-Shape-4" data-name="Combined-Shape" d="M381.73 288.3c5.24 2.55 9.74 6.16 14.27 9.77a7.31 7.31 0 011.67 1.88 12.54 12.54 0 011.11 3.6c.44 1.91.35 4.39 2.41 5.32.05 4.43 1.17 8.92-2.22 12.45-15.08-4-29.9-8.92-42.9-1.36a35.35 35.35 0 01-2.87-11.76c-1.43-4.25-4-11.43 1.75-13.52 2-1.29 4.86-1.71 6-3.88a4.67 4.67 0 013.84-3c5.7-.86 11.65-2.74 16.94.5z" fill="#9d5623" fill-rule="evenodd"/><path id="Combined-Shape-5" data-name="Combined-Shape" d="M59.15 157c6.26 5.11 7.54 19.21 17.66 17.76-2.06-3.18-6.34-7.68-2.79-11 3.87-1.13 8.28 6.81 13.81 7.28 11.26 1.81 15.08 12 18.43 21.51-2.22 3-6.36 3.62-9.07 6.11l-33.58-3.91-19.29-13c-.24-2.25-.36-4.29 1.59-6-2.5-8.13-5.6-14.52 2.22-12.47-.67-4.27 2.2-7.68 5.44-2.88.62 1.12 3.15 6.63 4.38 7.81-1.06-3.44-5.21-13.01 1.2-11.21z" fill="#aa603b" fill-rule="evenodd"/><path id="Combined-Shape-6" data-name="Combined-Shape" d="M276.88 67.57c3.18 13.39 7.14 37.18 4.5 54.59-27.53 26.58-26.9 18.72-50.69-4.93-11.45-11.29-6.82-28.54-10-42.87-3.34-19 12.95-35.23 32.11-34.28 11.88 6.77 21.71 17.54 24.08 27.49z" fill="#a95f3a" fill-rule="evenodd"/><path id="Path-3" data-name="Path" class="cls-17" d="M266.84 68.84c11.12-3.11 11.86 3.59 11.6 12.41-4.42 9.87-16.64 3.41-16.89-5.7.4 0 .49-.53.27-1.67a12.85 12.85 0 011-2.52z"/><path id="Fill-225" class="cls-17" d="M228.37 80.29c.33-1 .67-2 1-3h.51c.12.86 5.65-4.53 4.91-5.42 19.38 1.62.67 29.61-6.43 8.38"/><path id="Fill-230" class="cls-18" d="M257.3 120.84A3.76 3.76 0 01252 122c1.58-1.22 3.41-.48 5.28-1.2"/><path id="Path-4-2" data-name="Path" class="cls-18" d="M271.32 64.69c5.27 1.32 7.29 4.37 7.9 11.09l-1 .28c-1.94-5.32-7.32-7.81-11.1-6.3 5.58.53 7.25 9.84 3.13 13.31-5.81 2.82-6.22-6.15-7-9.8-1.47-.75-.36 2.4-1.75 2.28-2.71-6.44 3.32-13.42 9.82-10.86z"/><path id="Fill-223" class="cls-18" d="M274.26 59.48c-3.95-2.62-8.68-1.74-13-.79a5.09 5.09 0 01-5.09-2.9c-.7-3.25 4.22-3.32 6.35-4 5.2-1.05 15.35 2.11 13.93 8.74a13.92 13.92 0 01-2.19-1.05z"/><path id="Fill-224" class="cls-18" d="M233.06 60.61c-13.27 8.31-4.62-7.35 3.18-7.22 4.36-1.38 11.09 3 6.2 7a11.29 11.29 0 00-9.38.22z"/><path id="Path-5" data-name="Path" class="cls-18" d="M234.9 66.82c3.78 1.34 7.57 4.34 7.37 8.72-2.19-2-4.53-4.41-7.47-3.63 8.74 7.1-2.47 23-4.91 5.42h-.51l-1 3c-.52-.4-1-.78-.88-1.46-.67-4.87 1.11-13 7.4-12.05z"/><path id="Fill-226" class="cls-18" d="M244.22 96.58c1.24 1.42 1.66 1 .58 2.75-6.83-2.81-7-8.35.44-10.47 3.14-6.79-.1-13.76.07-20.71.13-.49.32-.82.56-.35 10.93 28.69-8.3 21.01-1.65 28.78z"/><path id="Fill-228" class="cls-18" d="M268.17 85.51h.81c3.92.28 7.28-.66 9.46-4.26-.33 3.34-2.5 5.53-5.68 5.69h-3a1.44 1.44 0 01-1.62-1.43"/><path id="Fill-229" class="cls-18" d="M239.94 86.74a.62.62 0 01.26 1.07c-1 .7-3.77.79-5.69.72a2.43 2.43 0 01-2.6-1.92c2.65 1.39 5.34.95 8.03.13z"/><path id="Fill-227" d="M266.48 108.24c-3.12 3.49-6.48 6.7-11.3 7.69a17.4 17.4 0 01-9.31-.39c0-2.15-1.68-3.22-3-4.55-1.56-1.57-1.57-1-1.94-2.8 4.31-.61 21.41-1.74 26.4-2.62-.4 1.55-.33 2.11-.85 2.67z" fill="#69310f" fill-rule="evenodd"/><path id="Fill-233" d="M264.94 107.42c-4 5.83-10.29 9.2-17.31 7.53l-1.86-5.45 19.17-2.08" fill="url(#linear-gradient-5)" fill-rule="evenodd"/><path id="Combined-Shape-7" data-name="Combined-Shape" d="M205 327.41c10.78 5.12 17.08 7.42 31.9 10.56 26.1 5.93 67.5 7.4 89.4-5.09 0 5.15 0 8.14-.05 16.9-44.45 20.15-89.6 33.45-123.57 35.81a110.66 110.66 0 01-2-14.65l-.08-1.17c-.49-6.5-.73-15.61-.72-16.08.85-12.75 2.36-19.3 5.12-26.28z" fill="#5558b1" fill-rule="evenodd"/><path id="Oval-2" data-name="Oval" d="M68.77 111C41.15 111 19 84.61 19 57a50 50 0 01100 0c0 27.61-22.62 54-50.23 54z" fill="#04ffff" fill-rule="evenodd"/><path id="Combined-Shape-8" data-name="Combined-Shape" d="M69 7a50 50 0 00-44.37 26.92 78.24 78.24 0 00-2.36 19.24c0 19.49 7 36.74 17.65 47.26A46.07 46.07 0 0067.56 111c22.46-2.64 47.71-31.54 47.71-62.07A52.83 52.83 0 00112.84 33 50 50 0 0069 7z" fill="url(#radial-gradient)" fill-rule="evenodd"/><path id="Combined-Shape-9" data-name="Combined-Shape" d="M69 7a49.75 49.75 0 00-29.53 9.65c-7 15.06-7.63 37.12 8.47 48.92 19.13 14 39.08 15.64 53.63 3 9.58-8.31 13.67-22 11.75-34.75A50 50 0 0069 7z" fill="url(#radial-gradient-2)" fill-rule="evenodd"/><path id="Combined-Shape-10" data-name="Combined-Shape" d="M49.55 35.33c-9.77 6.88-.91 21.44 0 23-.79 1.66-1.76 2.21-2.65 3.88-.54 1 2.56 5.44 6.19 10.18l.53.7c4.21 5.46 8.9 11.16 9.34 12.48s2.37 1.73 3.76 1.16A10.65 10.65 0 0069.65 85c2.86-2.57 6.17-4.42 9.35-6.5 4.21-2.75 8-6.13 12-9.26.82-.65 1.56-1.41 2.35-2.08a7 7 0 001.62-2c.61-1.11-2.52-5.91-6-10.62l-.47-.64c-3.54-4.8-7.25-9.34-7.45-9.6-3.67-4.75-6.06-6.57-9.94-2.6-.96-1.33-11.06-13.76-21.56-6.37zM53 39.56c7.5-5.16 12.08 3.93 14 6.43-4.52 3-8.3 6.44-12.84 9-2.28-2.61-7.41-11.15-1.16-15.43z" fill="#76fdff" fill-rule="evenodd"/><path id="Combined-Shape-11" data-name="Combined-Shape" d="M49.55 35.33c-9.77 6.88-.91 21.44 0 23-.79 1.66-1.76 2.21-2.65 3.88-.27.52.37 1.88 1.54 3.72 11 7.92 22.26 11.75 32.59 11.12 3.4-2.45 6.59-5.24 9.89-7.85.82-.65 1.56-1.41 2.35-2.08a7 7 0 001.62-2c.61-1.11-2.52-5.91-6-10.62l-.47-.64c-3.54-4.8-7.25-9.34-7.45-9.6-3.67-4.75-6.06-6.57-9.94-2.6-.88-1.29-10.98-13.72-21.48-6.33zM67 46c-4.52 3-8.3 6.44-12.84 9-2.28-2.62-7.41-11.16-1.16-15.44 7.47-5.16 12.05 3.93 14 6.44z" fill="#fff" fill-rule="evenodd"/><path id="Path-33-Copy" d="M53.17 95.62c-.43 5.1-4.31 7-10.21 5.48-6.57-1.7-11-11.67-10.61-16.34s7.36-6.35 12.27-3.76 8.97 9.52 8.55 14.62z" fill="url(#linear-gradient-6)" fill-rule="evenodd"/><path id="Fill-18" class="cls-28" d="M79.2 153.81c1.43 2.44.86 5.11-1.07 3.88S67 134.6 65.16 122.06c-.15-1-.56-2.35 1-3.06 1.56.47 1.68 1.72 2 2.79.86 3.17 1.53 6.39 2.47 9.55 1.51 5.09 8.55 22.44 8.57 22.47z"/><path id="Fill-22" class="cls-28" d="M71.28 119.13c1.7-.82 2.49 2 7 15.84.69 2.08 2.52 6.06 1.3 6.79s-1.66-.33-2.24-1.15c-1.34-1.91-7.75-20.67-6.06-21.48z"/><path id="Fill-208" class="cls-29" d="M49.92 166.53c1.56-.32 3.78 3 3.82 3.1a63.4 63.4 0 017.67 13.12 4.27 4.27 0 003.21 2.62c1.37.34 2.72.78 4.09 1.18l-.12.59c-2.18-.25-4.37-.44-6.53-.79-.4-.07-.78-.7-1-1.15-1-1.84-2.38-4.86-4.45-8.33q-1.81-2.98-6.69-10.34z"/><path id="Fill-209" class="cls-29" d="M91.88 194.72c-.72-.31-1.46-.59-2.17-.94a27.62 27.62 0 00-8.71-2.22c-2.52-.32-4.85.71-7.21 1.3a32.54 32.54 0 01-9.21.86 1.23 1.23 0 01-1-.61 5.33 5.33 0 011.63-.43 26.9 26.9 0 0011-1.87 16.06 16.06 0 0114.6 1.9 9.22 9.22 0 011.47 1.46l-.39.55"/><path id="Fill-210" class="cls-29" d="M48.39 177.8c4.13 1.32 9.78 9 10.18 13.52-1.14.07-1.57-.78-2-1.56a45.06 45.06 0 00-7.8-10.91 4.37 4.37 0 01-.43-1"/><path id="Fill-211" class="cls-29" d="M79 175.3c.41.16 5.42 3.1 8 3.65.24.05.44.3.72.5l.73 6.49c-1.93-.49-2-.55-2.27-5.15-1.4-.85-2.91-1.68-4.32-2.66A16.44 16.44 0 0179 175.3z"/><path id="Fill-212" class="cls-29" d="M62.22 173.19c2.27.87 3.09 3 4 4.81a3.75 3.75 0 002.54 2.18c1 .31 1.93.6 2.85 1 .34.14.57.56 1.24 1.27-2.41-.39-4.27-.65-6.11-1a1.71 1.71 0 01-1.09-.73 42.05 42.05 0 01-3.39-7.51"/><path id="Fill-215" class="cls-29" d="M363 316.21c1.7-4.24 3.44-8.47 5.19-12.7a7.93 7.93 0 011.2-2.15 7.44 7.44 0 011.79-1.11c1.19 2.64-2.74 9.14-3.45 10.92s-1.61 3.49-2.44 5.23-1.19 6.62-1.59 6.17-1.4-4.66-.7-6.36z"/><path id="Fill-20" class="cls-29" d="M358.18 296.59c.27-.34.9-.4 1.35-.58a2.53 2.53 0 01.2 2.75c-.76 2-1.77 3.54-2.67 5.43-1.5 3.14-2.09 4.93-1.49 8.23.47 2.51 2.34 10.6 2.27 11.21-.92 0-3.29-5.05-4-7.9a62.48 62.48 0 01-1.35-8.12 87.53 87.53 0 015.69-11.02z"/><path id="Fill-216" class="cls-29" d="M373.72 322.65c-2.09-.34-.13-2.61.4-3.53 1.8-3.16 3.69-6.29 5.51-9.45a1.49 1.49 0 012.08-.81c.82 1.3.12 2.35-.63 3.42-2 2.92-4 5.85-6.05 8.77"/><path id="Fill-217" class="cls-29" d="M388.58 317.62c.41-.43 1.45-1.14 2.2-.78s0 1.38-.27 1.65c-2.11 2.5-4.27 5-6.43 7.44-.61.69-1.25.53-2.2-.25a52.61 52.61 0 016.7-8.06z"/><path id="Fill-218" class="cls-29" d="M376.18 287.71c1.09 1.09 2.09 2.13 3.15 3.12 1.4 1.3 2.83 2.56 4.26 3.82a4.21 4.21 0 011.62 3.2c-1.06-.77-1.78-1.23-2.42-1.78-2.34-2-4.68-4-7-6.08-.71-.64-1.3-1.42.37-2.28"/><path id="Fill-219" class="cls-29" d="M361.11 292.84c.45-.56.72-1.23 1.19-1.43 2.19-.93 3.67-3.21 6.39-3.52-1.72 3.47-4.65 5.41-7.58 4.95"/><path id="Path-7" class="cls-5" d="M364.93 269.32c1.22 2 8.54-2.09 15.06-1.9s12.67 7.77 14.38 4-4.52-12.36-11.92-13.48-18.75 9.36-17.52 11.38z"/></svg>