<svg id="Layer_1" data-name="Layer 1" xmlns="http://www.w3.org/2000/svg" viewBox="0 0 451 373"><defs><linearGradient id="linear-gradient" x1="-455.53" y1="570.27" x2="-455.34" y2="569.5" gradientTransform="matrix(432.66 0 0 -333.51 197268.65 190257.1)" gradientUnits="userSpaceOnUse"><stop offset="0" stop-color="#675ad8"/><stop offset="1" stop-color="#b1cbf4"/></linearGradient><linearGradient id="linear-gradient-2" x1="135.28" y1="37.12" x2="114.81" y2="136.1" gradientUnits="userSpaceOnUse"><stop offset=".49" stop-color="#180b00"/><stop offset="1" stop-color="#a73e3d"/></linearGradient><linearGradient id="linear-gradient-3" x1="172.19" y1="39.88" x2="168.84" y2="147.05" gradientUnits="userSpaceOnUse"><stop offset=".17" stop-color="#582902"/><stop offset=".28" stop-color="#180b00"/><stop offset="1" stop-color="#a73e3d"/></linearGradient><linearGradient id="linear-gradient-4" x1="-450.98" y1="566.82" x2="-451.32" y2="566.9" gradientTransform="matrix(83.22 0 0 -54.18 37685.72 30755.74)" gradientUnits="userSpaceOnUse"><stop offset="0" stop-color="#582903"/><stop offset="1" stop-color="#1a0a00"/><stop offset="1" stop-color="#67390f" stop-opacity="0"/></linearGradient><linearGradient id="linear-gradient-5" x1="-452.32" y1="569.52" x2="-452.03" y2="568.97" gradientTransform="matrix(105.84 0 0 -153.93 48017.33 87821.71)" gradientUnits="userSpaceOnUse"><stop offset="0" stop-color="#1f1f1f"/><stop offset=".38" stop-color="#3b3941" stop-opacity=".76"/><stop offset="1" stop-color="#1f1f1f"/></linearGradient><linearGradient id="linear-gradient-6" x1="-451.43" y1="569.68" x2="-451.26" y2="568.61" gradientTransform="matrix(88.68 0 0 -149.57 40204.95 85342.9)" gradientUnits="userSpaceOnUse"><stop offset="0" stop-color="#6f9fdd"/><stop offset="1" stop-color="#0af5fd"/></linearGradient><linearGradient id="linear-gradient-7" x1="-446.71" y1="568.94" x2="-446.71" y2="567.94" gradientTransform="matrix(46.67 0 0 -95.64 21031.19 54570.35)" gradientUnits="userSpaceOnUse"><stop offset="0" stop-color="#d2e6f4"/><stop offset="1" stop-color="#fff"/></linearGradient><linearGradient id="linear-gradient-8" x1="-440.93" y1="566.02" x2="-440.81" y2="565.18" gradientTransform="matrix(29.22 0 0 -40.79 12966.94 23272.99)" gradientUnits="userSpaceOnUse"><stop offset="0" stop-color="#ebab81"/><stop offset="1" stop-color="#ebab81" stop-opacity="0"/></linearGradient><linearGradient id="linear-gradient-9" x1="-451" y1="569.7" x2="-451" y2="568.7" gradientTransform="matrix(83.08 0 0 -151.25 37702.16 86262.48)" gradientUnits="userSpaceOnUse"><stop offset="0" stop-color="#c5ffff"/><stop offset="1" stop-color="#fff"/></linearGradient><linearGradient id="linear-gradient-10" x1="-439.96" y1="563.48" x2="-439.05" y2="562.64" gradientTransform="matrix(26.91 0 0 -26.9 12173.18 15261.85)" gradientUnits="userSpaceOnUse"><stop offset="0" stop-color="#ffc784"/><stop offset="1" stop-color="#f6a575"/></linearGradient><linearGradient id="linear-gradient-11" x1="-446.41" y1="568.6" x2="-446.24" y2="567.31" gradientTransform="matrix(44.84 0 0 -75.37 20248.87 42961.1)" gradientUnits="userSpaceOnUse"><stop offset="0" stop-color="#6fb5ff"/><stop offset="1" stop-color="#0af5fd"/></linearGradient><style>.cls-15,.cls-18,.cls-19,.cls-23,.cls-32,.cls-34,.cls-35,.cls-39{fill-rule:evenodd}.cls-15{fill:#88521a}.cls-18{fill:#f5f0e6}.cls-19{fill:#482406}.cls-23{fill:#fcc88e}.cls-32{fill:#5d2f20}.cls-34{fill:#653725}.cls-35{fill:#dd396a}.cls-39{fill:#fff}</style></defs><path id="Path-54-Copy" d="M20.46 157.33C-89 262.73 280.81 402.78 375 339.32S438.86 79.1 354.8 35.94 129.93 51.92 20.46 157.33z" fill="url(#linear-gradient)" fill-rule="evenodd"/><path id="Combined-Shape" d="M110.16 262.73c.41.15 34.4.43 48.23 3.38 18.45 3.94 35.85 18.6 37 18.5a144.81 144.81 0 016.11 21.48c1.14 6.35 2.24 12.72 3.1 19.11q1.06 8 2 16a549.72 549.72 0 01-44.44-13.46c-.42-1.43-.84-2.85-1.27-4.27-.9-2.95-2.2-5.77-3.33-8.64a1.79 1.79 0 00-1.9-1.25 1.94 1.94 0 00-1.85 1.37 8.75 8.75 0 00-.54 2.65c0 2.33 0 4.66.09 7-16.13-5.93-31.84-12.57-46.66-19.77-.14-1.47-.29-3.2-.41-5v-.63c0-.42 0-.84-.07-1.26a69.58 69.58 0 01.23-10.18c.27-2.81.74-5.59 1.13-8.38.68-4.86 1.36-9.72 2.07-14.58a19.15 19.15 0 01.51-2.07z" fill="#2e3949" fill-rule="evenodd"/><path id="Combined-Shape-2" data-name="Combined-Shape" d="M152.52 264.73c2.13.31 4.07.67 5.71 1.06 18.44 4.41 35.83 20.84 37 20.73a176.75 176.75 0 016.11 24.07c1.14 7.11 2.24 14.24 3.09 21.4q.54 4.47 1 8.94c-15.29-4-30.65-8.67-45.69-14-.74-2.19-1.58-4.34-2.35-6.52a1.79 1.79 0 00-1.89-1.41 2 2 0 00-1.86 1.54 11.24 11.24 0 00-.53 3v1q-8.91-3.28-17.62-6.85l-4.49-45.8z" fill="#3b495c" fill-rule="evenodd"/><path d="M152.31 18.5c-10.67-.71-22.25 2.64-31.31 8.5-12.8 8.41-5 27.42-12.08 40-5.31 17.89-34.38 37.33-21.89 56.16 2.74 4.77.74 9.34 5.64 12.39 24.31-2.93 44.34-5.19 59.61-6.85z" fill="url(#linear-gradient-2)" fill-rule="evenodd"/><path d="M182.86 28.5c-6.33-1.1-9.66-3-16.23-6a34.32 34.32 0 00-14.32-4v110.2c22.84-2.48 35-3.59 34.68-3.57 8.61-19.47-6.17-32.7-5.79-50.48.56-7 6.55-12 8.94-18.47 3.46-9.1 5.05-25.08-7.28-27.68z" fill="url(#linear-gradient-3)" fill-rule="evenodd"/><path id="Combined-Shape-3" data-name="Combined-Shape" d="M155.67 18.74c11.77 2.69 16.87 8 27.19 9.76 16.24 4.67 9.27 27.25 2 37.21-27.71 3.76-59.3 12.65-75.57.61 4.29-8.25 2.91-22.09 4.88-29.78 4.31-14.47 28.92-19.74 41.5-17.8z" fill="url(#linear-gradient-4)" fill-rule="evenodd"/><path id="Path" d="M124.93 122.28l.27.1c.53 1.94 38.37 4 38.46 3.83 4.22-3.74 10-2.59 15.07-2.4 21.37.45 30.11 24.33 33.06 42.25-2.44-5.65-14.56 34.07-41.81 109.72-19.91.87-35.5-1-52.88-9.56-4.69-2.57-12.24-4.09-10.44-8.87 10.09-22.13 12.76-41.26 6.91-64.62-.59-2.2-5.62-9.47-7.77-5.62-3.37 8.57-18.8-1.07-22.28-6.06-11.08-12 2.29-31.74 8.48-43.53.38-.6.92-1.16.7-2 7.5-7 9.08-10 20.21-10.55 4.22.16 7.91-3.97 12.02-2.69z" fill="#1f1f1f" fill-rule="evenodd"/><path id="Combined-Shape-4" data-name="Combined-Shape" d="M124.93 122.28l.27.1c.49 1.91 37.68 4 38.46 3.83 5-4.26 11.83-2.32 17.75-2.22 19.82 2.56 27.42 24.92 30.38 42.07-2.44-5.65-14.56 34.07-41.81 109.72-17.84.71-32.37-.52-48.31-7.49 1.68-65.92 17.54-72.33-15.72-142.4 3.43-.48 7-.66 10.38-1.55 2.81-.68 5.67-3.34 8.6-2.06z" fill="url(#linear-gradient-5)" fill-rule="evenodd"/><path id="Path-2" data-name="Path" d="M189.25 285.13c-37.33-2.41-53.23-60-53-90.8 10.72-23.81.66-15.89 4-32.62 3.34-7.58 13.88-20.66 17.64-22.77 14.37-8.25 36.35.51 45 13.6 19.69 23.27 24.18 65.17 20.85 93.09-2.02 17.26-16.94 39.37-34.49 39.5z" fill="url(#linear-gradient-6)" fill-rule="evenodd"/><path id="path-9" d="M179.82 160.29a22.39 22.39 0 0111.9 10.78c3.42 7.18 2.59 17.33-4.2 22.31a14.51 14.51 0 01-2.84 1.5 7.79 7.79 0 00-1.37.62 12 12 0 000 1.61v.11c.21 1.74 2.18 24.55 3.49 31.69a2.78 2.78 0 001.44 1.89c.52.3 1.66-.26 1.94-.38a1.72 1.72 0 00.76-1.25c.12-1.27-.28-3.11-.14-3.43s2.28-1 5-1.37c2.86-.37 6.26-.32 6.51-.08s1 7.54 2.34 22c.08.79.47 2-.15 2.41a14.9 14.9 0 01-3.77.51l-6.36.47c-.73-.07-.83-2.78-.91-3.08a3.11 3.11 0 00-3.55.81v3.21a6.58 6.58 0 01-.73 2.56 3.39 3.39 0 01-5.19.69 4.69 4.69 0 01-1.67-3l-.23-2.05-6.54-53.24-.3-.12-.58-.24c-.29-.12-.58-.23-.87-.32-9.61-3-17.52-13.43-15.12-23.75a16 16 0 0115-12 17.14 17.14 0 016.14 1.14zm-9.68 9.45a8.05 8.05 0 00-2.89 3.76c-.95 2.77.15 5.86 1.84 8.25a12.91 12.91 0 006.68 5.08 8.42 8.42 0 008-1.62 8.58 8.58 0 002.52-6.14c.09-8.14-9.02-14.66-16.15-9.33z" fill="url(#linear-gradient-7)" fill-rule="evenodd"/><path id="Fill-12" d="M115.64 192.34a50.33 50.33 0 0015.2-13.48 11.67 11.67 0 002.16-7.19c0-3.37.16-6.73.14-10.1a9.82 9.82 0 013.91-8.26 73.07 73.07 0 0113.62-9c.65-.31 1.33-.57 2-.86.6.1 1.27.06 1.55.79a1.87 1.87 0 01-.23 2c-.72.78-1.54 1.46-2.32 2.19-1.36-.55-.1.78 0 .66.92.57 1.5.48 1.65 1a2.9 2.9 0 01-1.48 2.71 15.93 15.93 0 01-1.45.75l.21 1c.66.46 1 .93 1 1.4a2.12 2.12 0 01-1.1 2l-2.68 1.3c-3.34 1.13-.7 1.5.09 1.07s1.2.56 1.45 1c.38.7-.08 1.4-.65 1.91a5.8 5.8 0 01-1.3 1c-2.38 1.1-3.66 3.14-4.74 5.38-.31.65-1.63 4-1.6 5a6.15 6.15 0 00.58 2.39 15.71 15.71 0 011.07 4.47 5.69 5.69 0 01-.39 2.89 37.87 37.87 0 01-2.52 4.47c-1.14 1.85-2.34 3.65-3.51 5.48l-2.58 3.45A166.68 166.68 0 01120 214.63c-1.11 1.15-4.14 4-4.44 4.31a25.85 25.85 0 01-6.62 4.73 52.85 52.85 0 01-13.13 5.83 25.84 25.84 0 01-13.41.23 37.66 37.66 0 01-7.9-2.85 3.75 3.75 0 01-2.19-2.88 14.89 14.89 0 010-5.91c.4-2 .44-4.14.72-6.19.47-3.4 1-6.79 1.51-10.18.4-2.67.68-5.38 1.24-8 .75-3.53 1.67-7 2.61-10.51.44-1.66 1.06-3.27 1.64-4.88a3.26 3.26 0 01.63-.83c1 1.18 1.9 2.39 2.89 3.56a25.29 25.29 0 0012.91 8.6c.78.21 1.6.27 2.39.42l2.65.53c-.3.94-.66 1.88-.89 2.84a27 27 0 00-.81 4.25c-.12 1.85 1 2.66 2.78 2.16a3.71 3.71 0 001-.46c3.12-1.84 6.25-3.67 9.34-5.56.29-.21 2.08-1.12 2.72-1.5z" fill="#fddca1" fill-rule="evenodd"/><path id="Combined-Shape-5" data-name="Combined-Shape" d="M80.63 177.49c1 1.18 1.9 2.39 2.89 3.56a25.29 25.29 0 0012.91 8.6c.78.21 1.6.27 2.39.42l2.65.53c-.3.94-.66 1.88-.89 2.84a27 27 0 00-.81 4.25c-.09 1.28.44 2.07 1.36 2.26l-.31.32h-1.27q0 .66-12.1 5.94c-5.41 2.36-10.84 8-15.2 12.07v-.18c.4-2 .44-4.14.72-6.19.47-3.4 1-6.79 1.51-10.18.4-2.67.68-5.38 1.24-8 .75-3.53 1.67-7 2.61-10.51.44-1.66 1.06-3.27 1.64-4.88a3.26 3.26 0 01.66-.85z" fill="url(#linear-gradient-8)" fill-rule="evenodd"/><path id="Path-Copy-2" d="M170.44 40c3.46 4.44 1.72 10.8 1 15.9 1.92 0 2.62-1.85 4.09-2.68.46 2.38-.65 4.66-.59 7.07-.34 2.59-.41 5.07-1.11 6.65-1.53 3.42-.52 5 0 7.53a35.27 35.27 0 01-2 12.54 50.51 50.51 0 01-12.37 19.47c-.91 3.42-3.75 18.5 4.2 19.77-10.32 16-30.68 14.52-38.46-3.83 8-5 10.22-16.22 7.16-24.74-3.57-5.15-3.57-11.64-6-17.19-2.43 2.14-4.22-.74-5.75-2.3-3-3-4.89-6.93-4-11.29 5.94-11.94 6.44 2.88 9.73 6.94 1.33-3.07 2.84-14.41 2.85-14.2l.66-4.51a8.05 8.05 0 015.09-.31l-3.16 2.46c3.77-.14 7.21-1.76 11 .06 1.86.67 3.9.3 2.36-2.09-.1-.16-.23-.59 0-.7A35.47 35.47 0 00170.44 40z" fill="#fcdb9f" fill-rule="evenodd"/><path id="Combined-Shape-6" data-name="Combined-Shape" d="M132.52 54.52a6.23 6.23 0 012.43.26l-3.16 2.46c3.77-.14 7.2-1.76 11 0-13.36-.55-9.09 21.16-8.86 24.33-.1 8.74 1.81 21 10.11 27.15-4.73 4.22-14.41 12.24-18.37 14.85a9.74 9.74 0 01-.48-1.24c8-5 10.22-16.22 7.16-24.74-3.57-5.15-3.57-11.64-6-17.19-2.43 2.14-4.22-.74-5.75-2.3-3-3-4.89-6.93-4-11.29 5.94-11.94 6.44 2.88 9.73 6.94 1.33-3.07 2.84-14.41 2.85-14.2l.66-4.51c.21-.26 2.67-.55 2.68-.52zm25.65-2.83c-2.09 4.31-7.54 4.93-12.55 5.36.53-.85-.92-1.81-.47-2.54 4.89-.72 9.79-1.75 14-4.43a18.38 18.38 0 00-.98 1.61z" fill="#f0b98a" fill-rule="evenodd"/><path id="Path-3" data-name="Path" class="cls-15" d="M155.54 119.87c-.56 5.41-2.5 10.62-3.34 16l-1.12.52a46.1 46.1 0 014.46-16.52z"/><path id="Fill-40" d="M154.91 94.48c-4.21.21-10.78.4-12.76-4 5.13 1.1 10.45-.9 15.13 2.31a7.82 7.82 0 01-2.37 1.69z" fill="#d75d6e" fill-rule="evenodd"/><path id="Fill-42" d="M154.91 94.48a3.33 3.33 0 01-3.39 2.8 8.08 8.08 0 01-7.06-3.22 3.62 3.62 0 01-.41-1.24 19.44 19.44 0 0010.86 1.66z" fill="#e88694" fill-rule="evenodd"/><path id="Fill-78" class="cls-18" d="M138.44 63.59a11.2 11.2 0 015.32 2.08c.32.32-.07 1.33.21 1.6a13.57 13.57 0 01-1.15 3c-1.35 2-3.47 2.1-5.61 1.84-2.55-.3-4.16-2.09-5.49-4-.48-.69-.19-1.91-.24-2.89.79-.22 3.94-1.78 6.96-1.63z"/><path id="Path-4" data-name="Path" class="cls-18" d="M169.55 65.54a3.64 3.64 0 00.66 1.11c.91 7.69-11.4 10.15-12 1.51a2.93 2.93 0 002-.23.19.19 0 01.16-.24c.44-.21 2.22-1 2.7-1.19l2.23-1z"/><path id="Fill-62" class="cls-19" d="M144.58 63.22a17.26 17.26 0 011 1.85 2.49 2.49 0 010 1.55c-.24.78-1 .62-1.61.66-.26-.26-.47-.64-.76-.93s-.53-.36-.82-.65a30.21 30.21 0 01-.92 3.39 2.72 2.72 0 01-2.64 2 3.29 3.29 0 01-2.48-2.59 13.23 13.23 0 01-.12-1.89c0-.61-.06-1.22-.09-1.81-1.73-.52-3.18.13-4.66.41-.63-.31-.82-.85-.25-1.23 1.26-.84 2.6-1.56 3.94-2.28a14.43 14.43 0 013.71-.9 10.73 10.73 0 014.3.94 9.6 9.6 0 011.4 1.48z"/><path id="Fill-64" class="cls-19" d="M158.25 66.86a15.91 15.91 0 015.5-4 13.84 13.84 0 015.78.68l.72.39h-.05c.31.44.63.88.91 1.34.58 1 .45 1.17-.9 1.41a1.66 1.66 0 00-2-.21c-.12 1.51-.29 3.87-.35 4.22a1.67 1.67 0 01-.48.9 3.31 3.31 0 01-3.16 1.08c-2.08-1.2-1.77-3.51-2.37-5.5a25.21 25.21 0 01-2.37 1.06 4.1 4.1 0 01-1.3 0z"/><path id="Path-5" data-name="Path" class="cls-15" d="M147.8 159.24l.09 1.07a21.88 21.88 0 00-4.45 2.79c-.93.55-1.28 1.66-2.48 1.82 1.14-2.62 3.5-4.55 6.84-5.68z"/><path id="Path-6" data-name="Path" class="cls-15" d="M150.42 153.57l.21 1c-3.82 1.7-6.9 4.64-10.53 6.6-.53-.5-.19-.84.16-1.13 3.32-2.13 6.02-6.33 10.16-6.47z"/><path id="Path-7" data-name="Path" class="cls-15" d="M151.67 148.44v.66c-5.1 2.18-9.23 5.73-13.65 9 1.11-2.99 10.45-10.65 13.65-9.66z"/><path id="Path-8" data-name="Path" class="cls-15" d="M136.09 115.1c3.48 5 4.83 12.17 7.55 17.9-2.07-.74-3.33-5.9-4.35-7.93a66.13 66.13 0 01-3.2-9.97z"/><path id="Path-9-2" data-name="Path" class="cls-15" d="M135.88 101.52c4 2.8 8.14 5.9 12 8.81 2.88 2.16 9.74-2.48 11.64-3.91l-.34 1.28c-3.76 2.61-7.37 5.54-10.75 4.35-5.89-3.64-8-6.15-12.88-10.15a3.9 3.9 0 00.33-.38z"/><path id="Path-10" data-name="Path" class="cls-15" d="M156.2 78.64c1.41.59 1.49 1.32 1.15 2.18a4.71 4.71 0 01-2.74 2.62l-.81.33-2 .83a2.53 2.53 0 000-.28v-.4a1.83 1.83 0 01.07-.71 1.25 1.25 0 01.58-.52l.17-.09h.08c1.66-.87 3.06-1.93 3.5-3.96z"/><path id="Path-11" data-name="Path" class="cls-15" d="M154.66 60.09c-1.49 8.18-2.13 8.48.44 16.65-3.14-2.19-3.83-9-2.37-13.08.37-1.36.43-2.66 1.93-3.57z"/><path id="Path-12" data-name="Path" class="cls-15" d="M120.73 65.63a1.54 1.54 0 011.13.57l.08.12.15.24a4 4 0 01.51 3.76 4.47 4.47 0 00.36 4.59.58.58 0 010 .21v.63c-2.1-1.63-2.76-3.27-1.91-5l.06-.12a3.29 3.29 0 00-.28-3.79l-1.26.06a1 1 0 011.16-1.27z"/><path id="Fill-56" d="M171 59.46c-2.75-1.17-5.63-1.14-8.53-1a10.85 10.85 0 01-1.89 0 1.19 1.19 0 01-1-1.79c.29-.52.74-1.2 1.23-1.32a10.51 10.51 0 014-.47 12.66 12.66 0 016.79 3.68c.08.07.34.69.21.89s-.66.06-.81.01z" fill="#753b0a" fill-rule="evenodd"/><path id="Fill-30" d="M137.18 60.57a10.45 10.45 0 00-4.65.74c-2.16.78-3.07 2.18-2.61 4.43 1 5.08 3.74 8.56 9.92 8.52 5.06 0 8.4-3.23 8.95-8.44a2.39 2.39 0 00-.5-1.74 15.92 15.92 0 00-5.46-2.71 17.75 17.75 0 00-5.65-.8zm26.81 2c-3.8-.21-5.14.88-5.74 4.29v1.3a6.63 6.63 0 002.1 5.6c4.05 3.77 10.69 3.47 13.43-.71s2.27-3.34 2.92-5.24a1.79 1.79 0 00-.82-2.34 19.43 19.43 0 00-4.62-1.92 37.66 37.66 0 00-7.26-.98zm-8 2a5.19 5.19 0 00.49-1c1-2.41 3.1-3 5.49-3 4.06-.12 8.12-.11 12 1.52.24.1 4.3 1.69 5.6 3.63A23.61 23.61 0 01174 75.9a31.73 31.73 0 01-3 1.77c-5.16 2.3-14 .2-15.32-8.25a12.11 12.11 0 00-.25-1.6 1.86 1.86 0 00-1.62-1 5.65 5.65 0 00-1.78.26c-.93.45-1.09 1.37-1.39 2.22a10 10 0 01-9.64 7.13 12.93 12.93 0 01-7.36-1.34 14.15 14.15 0 01-4.9-5.22 12.61 12.61 0 01-1-3.51c-.27-1.56-.21-2.88-.32-3.8a2.64 2.64 0 011.72-3 9.45 9.45 0 001.61-.2c5.51-1.72 10.87-1.08 16.17 1a8.1 8.1 0 014.58 3.6.8.8 0 001.13.36 5.42 5.42 0 011.54-.13 11.08 11.08 0 011.83.4z" fill="#15c2f3" fill-rule="evenodd"/><path id="Combined-Shape-7" data-name="Combined-Shape" d="M247.58 102.64c7.56 5.1 13.13 12.25 17.7 20-4.22 4.11 1.14 11.79 3.5 16l-.4 2.87c-3.7 12.43 1.2 24.44 7.81 35.1-3.07 1.91-5.71 4.87-9.21 5.92-3.56.58-5.59 3.55-5.16 7.19l-.51.22 6.06 30.06 2.29-.35 6.09 3.41c-16.62 42.31-57 23.46-70.18-10.38 7.42 1.46 14.72 3.45 22.08 5.12l-9.28-22.24a46.73 46.73 0 01-5.49-1.76c-.32-4.15-2.2-7.29-4.64-10.47-5.28-7.16-2.35-17-12.55-21.33-.65 1-1.2 2.53-2.39 3.23-.58-17 .06-34.63 7.94-50.05 7.76-17.57 30.89-24.94 46.34-12.54z" fill="url(#linear-gradient-9)" fill-rule="evenodd"/><path id="Path-13" data-name="Path" class="cls-23" d="M261.82 189.75c.67 2.74 6.8 28.92 7.83 29.94A83.33 83.33 0 01255 221c-2.72 0-5.43-.43-8.15-.48a75.87 75.87 0 01-14-1.59c-7.1-1.46-14.12-3.3-21.18-4.95-2-.48-4.07-.87-6.1-1.3a19.09 19.09 0 01-1.89-1.93c-4.47-6-8.87-12.12-13.37-18.12-2.06-2.75-4.28-5.38-6.48-8-1.42-1.72-1.55-2.85-.21-4.57 1-1.36 2.23-2.62 3.3-4 1.93-2.4 4-4.7 5.34-7.51a24.9 24.9 0 001-3.34 4.52 4.52 0 001-.82c.55-.81 1-1.68 1.43-2.41.45 0 .68 0 .79.05A30.72 30.72 0 01203 169a8.45 8.45 0 011.48 4.34 18.27 18.27 0 003.72 10.08 53.33 53.33 0 013 4.55 8.2 8.2 0 01.94 2.22c.29 1.13.44 2.3.7 3.7a45.28 45.28 0 0023.94 2.55 58.27 58.27 0 0016.65-3c1.95-.63 3.79-1.6 5.67-2.42z"/><path id="Combined-Shape-8" data-name="Combined-Shape" d="M269.65 219.69c-19.19 3.55-38.57-.65-57.16-5.48 7.39-6.45 39.07-9.37 52.9-9.68 1.81 7.3 3.73 14.63 4.26 15.16z" fill="#f5b688" fill-rule="evenodd"/><path id="Fill-4" d="M358.26 116.08c7.52-3.34 4.24 12.12 9.18 15.3 2.29 2.93 4.73 5.77 6.81 8.85 16.15 22.91 11.28 53 7.64 79-4.63 20.1-9.53 41.51-3.08 61.76 6.22 16.12-43.88 12.29-53.63 15a35.48 35.48 0 01-27.32-4.76c-3.18-1.54-9.72-3.65-10.37-7.32 1.26-22.92-.07-45.94 8.62-67.71-8.85 3.38-17.62 11.55-26.46 3.5-9.82-7.37-5.89-21.18-7.84-31.82.32-4.29 4.18-4.83 7.37-6.21 5-2.26 11.24-12 16.1-5.51 8.2-8.17 16-17.26 24.44-25.46 2.24-2.92 2.08-7.05 5.95-9 4.07-1.8 5.21-5.12 5.86-9.27 9.47-9.37 25.59-9.54 36.73-16.35z" fill="#fa6d95" fill-rule="evenodd"/><path id="Combined-Shape-9" data-name="Combined-Shape" d="M362.93 118.15c1.38 15.53 16.94 24.36 19.79 39.69 4.86 20.17 2.3 41.19-.83 61.42-3.13 14.51-7.11 28.83-5.9 43.81-1.79 8.37 8.45 23.43-1.27 27-19.58 5-40.14 4.59-60.14 6.86q22.16-75.3 3.1-96.61c-20-22.34.4-38.26 12.4-46.8q9.87-7 9.07-30.21c5.78-2.47 12.79-3 17.86-6.79 2.63-1.15 5.16-1.98 5.92 1.63z" fill="#f24f80" fill-rule="evenodd"/><path id="Combined-Shape-10" data-name="Combined-Shape" d="M294.8 290.12c9.7 4.63 19.37 8.92 30.38 5.85 12.79-1.14 25.62-1.88 38.39-3.39-.7 19-2.58 25.46-15.44 39.77-5.57 7.6-16.13 11.32-17.68 21.44-15.86 1.91-33.81 1.85-52.93.11a232.89 232.89 0 0113.23-52.68l4.06-11.09z" fill="#4a83c2" fill-rule="evenodd"/><path id="Combined-Shape-11" data-name="Combined-Shape" d="M363.57 292.58c-.42 18.05-3.05 26.38-15.44 39.77-5.56 7.59-16.13 11.32-17.68 21.44a213.36 213.36 0 01-25.27 1.43 170.15 170.15 0 0115.23-58.62c14.33-1.79 28.81-2.25 43.16-4.02z" fill="#3473b7" fill-rule="evenodd"/><path id="Combined-Shape-12" data-name="Combined-Shape" class="cls-23" d="M340 47.89c33.2 3.8 40.63 39.11 17.77 60.11-3.3 2-1.69 5.65-.76 8.54-10 5.62-22.31 7.21-32.51 13a5 5 0 00-3 2.86c0-1.3-1.18-.94-1.94-1.34 4-2.44 8.44-3.74 8.22-9.59-4.77-.83-17.25-4.58-17.11-4.22-2.55 2.67-5 2.79-7.82.48-.07-1.74.33-3.46-1.16-4.78s-1.37-1.75-.07-3.71.94-4.77-.63-5c-2.28 1.32-4.54 1.15-6.1-1-3.22-3.08 7.12-8.93 7.46-17.12-7.54-16.27 1.25-32.21 18.48-37.25a52.8 52.8 0 0119.17-.98z"/><path id="Path-63" d="M318.08 94.61c2.77-4.79 12-15.77 18.82-12.11 3 1.6-1.48 7-2.77 13.88-1.68 9-1.33 20-6.64 23.49-9.41 6.13-12.18-20.47-9.41-25.26z" fill="#f6bc89" fill-rule="evenodd"/><path id="Combined-Shape-13" data-name="Combined-Shape" d="M352.44 97.31l8.71 7.76c-4.64 3.86-6.92 5.18-4.14 11.47-5.82 4-13.91 5-20.56 7.51-.82-6.68-2.3-20.43-2.2-23.14q0-4.53 18.19-3.6z" fill="url(#linear-gradient-10)" fill-rule="evenodd"/><path id="Combined-Shape-14" data-name="Combined-Shape" d="M340 47.89c33.2 3.8 40.63 39.11 17.77 60.11-2.17 1.36-2.16 3.13-1.78 5.38-7.29-.67-11-6.9-12.16-13.62 3.59-5 9.91-15.58 3.09-20.08l-6.84 3.6c-.6 1.41-1.72 2.63-1.69 4.3l-.57.65c-.73-1.2-.54-2.25-.63-3.76-2.56.15-3.47 2.74-5.61 3.82-1.79-6-2.44-12.53 2.18-17.49 1.6-2.11 1.56-13.42-9-18.64-2.36-1.16-3.23-1.95-3.94-3.32 6.24-1.84 12.82-1.66 19.18-.95z" fill="#69392d" fill-opacity=".9" fill-rule="evenodd"/><path id="Combined-Shape-15" data-name="Combined-Shape" class="cls-32" d="M339.34 80.41c-1.7-7.49 4.91-19.33 29.55-12.82 4.6 13.61.34 31.37-11.12 40.41-2.17 1.37-2.16 3.13-1.78 5.38-7.29-.67-11-6.9-12.16-13.62 3.59-5 9.91-15.58 3.09-20.08l-6.84 3.6c-.35.83-.89 1.6-1.26 2.42a11.46 11.46 0 00.52-5.29z"/><path id="Combined-Shape-16" data-name="Combined-Shape" d="M359 318.22a210.09 210.09 0 004 27.49c-9.35 3.95-20.35 6.6-32.59 8.07.87-5.46 4.35-9.43 8.6-12.65 8.09-6.24 13.99-14.87 19.99-22.91z" fill="#3760a5" fill-rule="evenodd"/><path id="Fill-22" class="cls-32" d="M310.7 117.26c1.55-1.44 3.11-5.5 5.67-3.73 2.11 1.59 4.11.9 6.17.17 10.81-3.75 6.83-16.75 9-25.41 2.14-1.08 3.05-3.67 5.61-3.82.09 1.5-.1 2.56.63 3.76-4 6.93.55 14.34-.47 21.45-3.08 8.91-9.32 17-17.76 21.39-11.58 6.72-22.62-.23-16.71-13.33 2.85 2.31 5.31 2.19 7.86-.48z"/><path id="Path-14" data-name="Path" class="cls-23" d="M265.28 122.68c3.3 2 4.86 6.3 7.91 8.86-.05.81 3 3.52 3.26 3.89a35.36 35.36 0 001.9 5.4c2.12 4.19 4 8.48 6.11 12.69.93 2.37-.39 2.77-1.45 5.61a2 2 0 00.67 2.94 82.57 82.57 0 009.45 5.46 43.23 43.23 0 01-7.85 8.62c-3.4-4.36-5.44-2-9.09.49-10.29-18.26-9.49-18.89-8.1-39-1.95-3.79-6.94-11.49-2.81-14.96z"/><path id="Fill-30-2" data-name="Fill-30" class="cls-32" d="M301.77 76.41c-.28-.49-.5-1-.74-1.56l.68-.87a16.58 16.58 0 007.53-2.06c1.87-.92 3.35-.91 4.91.57 1.37 1.31 2.94 2.41 4.38 3.64a11 11 0 011.15 1.39c-1.62 1.48-2.21 1.75-3.28.79-2.08-1.85-4.15-1.3-6.31-.39-.5.21-1 .52-1.44.76-2 1-4 1.08-5.77-.59-.37-.56-.77-1.09-1.11-1.68z"/><path id="Fill-34" class="cls-34" d="M307 104.09c1.26-.08 2.53 0 3.79 0a2.13 2.13 0 012.34 1.7c-.13.21-.18.44-.31.5-3.37 1.64-7.06 2.08-10.67 2.84a1.38 1.38 0 01-1.54-.84c.27-1.28.54-2.57.85-4.08a52 52 0 005.54-.12z"/><path id="Fill-36" class="cls-34" d="M269.89 135.35c.58-2 2.15-2.27 4.07-2.18l1.05.89c-.19 4.27-.11 8.37 1.47 12.41-3.16-1.95-2.48-8-2.87-11.56-4.05-2.4-4.3 8.7-3.38 11.05.1.77.63 1.51.21 2.24-3.44-3.26-1.95-8.92-.55-12.85z"/><path id="Fill-38" class="cls-35" d="M326.82 201.35c2.83-3.18 9-4.35 8.17-9.48-8.87-.33-20.52 18.52-30.57 19.44 7.45-2.76 26.51-27 32.87-20.4 2.32 3.93-2.23 6.81-4.92 9-3 1.37-7.22 7-10.47 5.16 1.77-1.37 3.36-2.52 4.92-3.72z"/><path id="Fill-40-2" data-name="Fill-40" class="cls-35" d="M290.34 201c-4.47-5.26-12.16-12.87-8.16-20.12 3.21 8.14 7.6 13.91 12.23 21.23a3.44 3.44 0 01-4.07-1.11z"/><path id="Fill-42-2" data-name="Fill-42" class="cls-35" d="M332.07 141.15c-7.84-.16-14.06 3.38-19.73 8.23 3.1-9.14 16.45-12.52 24.56-8.94a42.16 42.16 0 01-4.83.71z"/><path id="Fill-44" d="M238.54 132.31a9.53 9.53 0 00-9.43-1.94c-3 1-5.77 4.76-5.29 7.53 1.06 6.09 4.8 9.92 10.93 10.93a5 5 0 003.46-.4c2.81-1.69 4.77-3.91 4.72-6.29.07-4.79-1.67-7.61-4.39-9.83zm14.93 61a58.27 58.27 0 01-16.65 3c-.62-6.13-1.06-12.27-2.06-18.36-.62-3.75-.82-7.57-1.25-11.35-.34-3-.75-5.92-1.14-9l-3.11-1.22c-7.83-3.12-13-8.73-14.6-17-1.2-6.28.59-11.91 6.13-15.84a14.22 14.22 0 017.09-2.53c7.55-.64 13.68 2.27 18.54 7.92a20.7 20.7 0 015 11.87 14.26 14.26 0 01-3.86 11.77 16.71 16.71 0 01-7.25 4.78c.18 2.62.3 5.14.54 7.65.25 2.71.61 5.4.93 8.1.44 3.78.88 7.56 1.35 11.34.23 1.79.47 3.59.77 5.38.34 2 .53 2.1 2.44 2.14a14.61 14.61 0 001.6-.14c.64-1.09.31-2.21.41-3.27a1.33 1.33 0 011.37-1.38c.54 0 1.09 0 1.63-.06 2-.17 4-.36 6-.52h1.69c.05 1.56.1 2.9.14 4.25-1.92.91-3.76 1.88-5.71 2.51z" fill-opacity=".95" fill="url(#linear-gradient-11)" fill-rule="evenodd"/><path id="Path-15" data-name="Path" class="cls-34" d="M194.33 175.64a22.14 22.14 0 00-.15-8.66 2 2 0 010-.8c0-.06.12-.1.37-.29a5.7 5.7 0 01.8 1.2 12.37 12.37 0 01.58 6.18 10.55 10.55 0 00.92 7.35 11.41 11.41 0 011.23 6.51c-2.91-.87-4-3.38-6.22-4.71.47-1 .83-1.84 1.25-2.62.07-.12.46-.06.71-.08-.09.61-.18 1.22-.31 2.06 1.09.43 1.41 1.88 3.11 2.13-.49-1.89-.85-3.5-2.06-4.79a16.51 16.51 0 01-.23-3.48z"/><path d="M312.87 84.82a7.17 7.17 0 002.43-.35c-.19-1.13-2.36-1.61-2.43-1.92-1.65.18-4.25-.17-5.9 0s-2.71 3.12-1.86 4.08l2.79 3.19c2.11-.92 2.11-.92 3-2.3l-1.58-3.12a4.4 4.4 0 013.55.42z" fill-rule="evenodd"/><path d="M305.35 115.13h-.05a2.42 2.42 0 01-1.78-.87 2.71 2.71 0 01-.28-2.26v-.15l1.85-1.71 1.68-.71h.12a9.64 9.64 0 002.67-1c1.53-.76 3.11-1.54 5.13-1.13l.38.08v.38a5.76 5.76 0 01-2.62 5.12 10.76 10.76 0 01-6.74 2.31zm0-1h.36a9.67 9.67 0 006.14-2.1 4.89 4.89 0 002.25-3.87 7.19 7.19 0 00-4.09 1.1 11 11 0 01-2.9 1.11l-1.55.65-1.4 1.34a1.71 1.71 0 00.14 1.31 1.4 1.4 0 001.08.46z" fill="#5d2f20" id="Fill-54-Copy"/><path id="Fill-54" class="cls-39" d="M303.73 112.11l1.59-1.51 1.69-.74c2.55-.42 4.6-2.76 7.62-2.15.14 2.22-1 3.55-2.43 4.7a11.42 11.42 0 01-6.84 2.2c-1.6-.14-1.92-1.12-1.63-2.5z"/><path id="Fill-58" class="cls-39" d="M309.34 84.4a4.4 4.4 0 013.53.42 2.52 2.52 0 01-1.95 2.7z"/><path id="Fill-28" d="M301.41 79.31a23.85 23.85 0 003.78.63c8.13.07 16.27 0 24.41 0a2.64 2.64 0 00.53-.11c2.94 0 8.15-.07 11.1-.11a14.62 14.62 0 012.66.2c.95.17-2.48 3.27-3 3.09a32 32 0 00-10.79-.83c-3.5.17-7 .34-10.5.49h-3.51l-9.92 1.06-3.23.35c-.49 4 .59 7.61.41 11.37a3.22 3.22 0 01-4.24.16c-.26-2.87-.4-5.77-.82-8.62-.46-3.22-1.17-6.4-1.78-9.59-.05-.27-.1-.53-.14-.8-.22-1.67-.1-1.8 1.74-2.32.33-.1 1.3.16 1.62 0 .14.41 1.48 4.19 1.68 5.03z" fill="#2d2828" fill-rule="evenodd"/><path id="Fill-48" class="cls-34" d="M344.41 80c10.71-1.53 3.2 15.77-.58 19.74-2.16.55-3.71 2-6.18.48 11.06-.14 13.85-28.38 3.51-14.54 3.27 0 4.66 3.51 2.3 5.91.08-5.13-1.1-4.2-5.07-4 .2-3.97 2.87-6.15 6.02-7.59z"/></svg>