<svg id="Layer_1" data-name="Layer 1" xmlns="http://www.w3.org/2000/svg" xmlns:xlink="http://www.w3.org/1999/xlink" viewBox="0 0 1733 499"><defs><linearGradient id="linear-gradient" x1="846.75" y1="-14.44" x2="913.41" y2="459.97" gradientUnits="userSpaceOnUse"><stop offset="0" stop-color="#8500e0"/><stop offset=".77" stop-color="#4680dd"/><stop offset="1" stop-color="#1dd4db"/></linearGradient><linearGradient id="linear-gradient-2" x1="182.57" y1="631.59" x2="183.05" y2="631.77" gradientTransform="matrix(119.19 0 0 -75.21 -20585.18 47839.6)" gradientUnits="userSpaceOnUse"><stop offset="0" stop-color="#4e8fd8"/><stop offset="1" stop-color="#4680dd"/></linearGradient><linearGradient id="linear-gradient-3" x1="183.06" y1="633.18" x2="183.06" y2="632.18" gradientTransform="matrix(127.6 0 0 -163.28 -22172.29 103593.63)" gradientUnits="userSpaceOnUse"><stop offset="0" stop-color="#3a29bb"/><stop offset="1" stop-color="#4759ca"/></linearGradient><linearGradient id="linear-gradient-4" x1="180.36" y1="632.89" x2="180.36" y2="631.89" gradientTransform="matrix(44.43 0 0 -120.99 -6868.71 76797.93)" gradientUnits="userSpaceOnUse"><stop offset="0" stop-color="#3634b4"/><stop offset=".51" stop-color="#2262cd"/><stop offset="1" stop-color="#434cbe"/></linearGradient><linearGradient id="linear-gradient-5" x1="179.45" y1="631.98" x2="179.45" y2="630.98" gradientTransform="matrix(36.43 0 0 -66.31 -5340.17 42159.57)" gradientUnits="userSpaceOnUse"><stop offset="0" stop-color="#3a39b8"/><stop offset=".55" stop-color="#2464c3"/><stop offset="1" stop-color="#3e45bc"/></linearGradient><linearGradient id="linear-gradient-6" x1="180.43" y1="629.93" x2="179.54" y2="630.23" gradientTransform="matrix(40.5 0 0 -39.64 -6092.86 25075.36)" gradientUnits="userSpaceOnUse"><stop offset="0" stop-color="#351600"/><stop offset="1" stop-color="#4a1d00"/></linearGradient><linearGradient id="linear-gradient-7" x1="179.65" y1="631.72" x2="179.42" y2="630.93" gradientTransform="matrix(37.24 0 0 -60.2 -5538.72 38135.85)" gradientUnits="userSpaceOnUse"><stop offset="0" stop-color="#cf6634"/><stop offset="1" stop-color="#df8547"/></linearGradient><linearGradient id="linear-gradient-8" x1="182.09" y1="632.26" x2="182.09" y2="631.25" gradientTransform="matrix(76.48 0 0 -76.79 -12748.31 48687.7)" gradientUnits="userSpaceOnUse"><stop offset="0" stop-color="#4bbf65"/><stop offset="1" stop-color="#32d296"/></linearGradient><linearGradient id="linear-gradient-9" x1="178.53" y1="630.61" x2="178.17" y2="630.41" gradientTransform="matrix(30.49 0 0 -44.71 -4246.56 28301.07)" gradientUnits="userSpaceOnUse"><stop offset="0" stop-color="#d26430"/><stop offset="1" stop-color="#df8546"/></linearGradient><linearGradient id="linear-gradient-10" x1="183.71" y1="633.31" x2="183.71" y2="632.31" gradientTransform="matrix(232.77 0 0 -194.97 -41462.05 123716.81)" gradientUnits="userSpaceOnUse"><stop offset="0" stop-color="#4000ab"/><stop offset="1" stop-color="#5d79e1"/></linearGradient><linearGradient id="linear-gradient-11" x1="183.22" y1="633.18" x2="182.69" y2="631.94" gradientTransform="matrix(117.6 0 0 -133.78 -20272.06 84934.37)" gradientUnits="userSpaceOnUse"><stop offset="0" stop-color="#4415bb"/><stop offset="1" stop-color="#3e86de"/></linearGradient><linearGradient id="linear-gradient-12" x1="179.6" y1="632.75" x2="179.6" y2="631.75" gradientTransform="matrix(37.54 0 0 -107.01 -5478.94 68038.32)" gradientUnits="userSpaceOnUse"><stop offset="0" stop-color="#4254cb"/><stop offset="1" stop-color="#439ee9"/></linearGradient><linearGradient id="linear-gradient-13" x1="1258.26" y1="220.59" x2="1299.28" y2="221.43" gradientUnits="userSpaceOnUse"><stop offset="0" stop-color="#fddfb9"/><stop offset=".58" stop-color="#eebda0"/><stop offset="1" stop-color="#e5a992"/></linearGradient><linearGradient id="linear-gradient-14" x1="1164.73" y1="388.52" x2="1177.56" y2="397.45" gradientUnits="userSpaceOnUse"><stop offset="0" stop-color="#fddfb9"/><stop offset="1" stop-color="#ecba9e"/></linearGradient><linearGradient id="linear-gradient-15" x1="183.6" y1="631.53" x2="183.1" y2="631.68" gradientTransform="matrix(143.09 0 0 -72.92 -25360.74 46395.2)" gradientUnits="userSpaceOnUse"><stop offset="0" stop-color="#5171d6"/><stop offset="1" stop-color="#4e6edd"/></linearGradient><linearGradient id="linear-gradient-16" x1="179.91" y1="632.49" x2="179.87" y2="631.26" gradientTransform="matrix(40.05 0 0 -88.57 -6280 56265.92)" gradientUnits="userSpaceOnUse"><stop offset="0" stop-color="#fea85a"/><stop offset=".43" stop-color="#fea85a"/><stop offset="1" stop-color="#ed7b58"/></linearGradient><linearGradient id="linear-gradient-17" x1="179.43" y1="631.91" x2="179.37" y2="630.68" gradientTransform="matrix(36.09 0 0 -64.11 -5603.06 40792.29)" xlink:href="#linear-gradient-16"/><linearGradient id="linear-gradient-18" x1="182.15" y1="629.78" x2="181.77" y2="629.82" gradientTransform="matrix(70.87 0 0 -36.03 -12003.25 22937.31)" gradientUnits="userSpaceOnUse"><stop offset="0" stop-color="#3959b9"/><stop offset="1" stop-color="#1f50a6"/></linearGradient><linearGradient id="linear-gradient-19" x1="182.76" y1="632.11" x2="182.97" y2="631.66" gradientTransform="matrix(115.18 0 0 -83.18 -20168.38 52677.53)" gradientUnits="userSpaceOnUse"><stop offset="0" stop-color="#442012"/><stop offset="1" stop-color="#61311d"/></linearGradient><linearGradient id="linear-gradient-20" x1="177.19" y1="631.59" x2="177.21" y2="631.16" gradientTransform="matrix(25.28 0 0 -60.37 -3587.62 38305.3)" gradientUnits="userSpaceOnUse"><stop offset="0" stop-color="#14a2d9"/><stop offset="1" stop-color="#0ebee4"/></linearGradient><linearGradient id="linear-gradient-21" x1="181.23" y1="631.08" x2="180.87" y2="631.92" gradientTransform="matrix(52.66 0 0 -69.74 -8669.83 44235.85)" gradientUnits="userSpaceOnUse"><stop offset="0" stop-color="#00cfee"/><stop offset="1" stop-color="#00a4de"/></linearGradient><linearGradient id="linear-gradient-22" x1="182.85" y1="632.14" x2="182.85" y2="631.15" gradientTransform="matrix(111.43 0 0 -72.2 -19603.31 45900.33)" gradientUnits="userSpaceOnUse"><stop offset="0" stop-color="#adf5f7"/><stop offset=".99" stop-color="#8cc0ed"/></linearGradient><linearGradient id="linear-gradient-23" x1="183.46" y1="633.09" x2="183.74" y2="632.37" gradientTransform="matrix(191.47 0 0 -213.15 -34322.79 135273.13)" gradientUnits="userSpaceOnUse"><stop offset="0" stop-color="#5f23bf"/><stop offset="1" stop-color="#7942cf"/></linearGradient><linearGradient id="linear-gradient-24" x1="183.25" y1="632.27" x2="182.81" y2="632.02" gradientTransform="matrix(131.63 0 0 -98.29 -23251.77 62511.98)" gradientUnits="userSpaceOnUse"><stop offset="0" stop-color="#b251da"/><stop offset=".66" stop-color="#7e35c8"/><stop offset="1" stop-color="#7d34c8"/></linearGradient><linearGradient id="linear-gradient-25" x1="177.01" y1="628.6" x2="177.23" y2="627.82" gradientTransform="matrix(25 0 0 -25 -3364.02 15885.11)" gradientUnits="userSpaceOnUse"><stop offset="0" stop-color="#10ebf9"/><stop offset="1" stop-color="#03fefe"/></linearGradient><linearGradient id="linear-gradient-26" x1="182.42" y1="631.38" x2="181.72" y2="631.38" gradientTransform="matrix(71.99 0 0 -63.11 -12068.35 39972.58)" gradientUnits="userSpaceOnUse"><stop offset="0" stop-color="#1fd3f2"/><stop offset="1" stop-color="#01fcfd"/></linearGradient><linearGradient id="linear-gradient-27" x1="182.24" y1="629.73" x2="183.09" y2="629.65" gradientTransform="matrix(98 0 0 -35 -16796 22105)" gradientUnits="userSpaceOnUse"><stop offset="0" stop-color="#00eefd"/><stop offset="1" stop-color="#00a1ef"/></linearGradient><linearGradient id="linear-gradient-28" x1="92.48" y1="621.69" x2="92.51" y2="621.02" gradientTransform="matrix(2 0 0 -11 971 6913)" gradientUnits="userSpaceOnUse"><stop offset="0" stop-color="#009fee"/><stop offset="1" stop-color="#009fee"/></linearGradient><linearGradient id="linear-gradient-29" x1="165.7" y1="614.51" x2="166.55" y2="614.17" gradientTransform="matrix(10 0 0 -7 -522 4385)" gradientUnits="userSpaceOnUse"><stop offset="0" stop-color="#00adf1"/><stop offset=".98" stop-color="#00a5f0"/></linearGradient><linearGradient id="linear-gradient-30" x1="181.04" y1="632.23" x2="181.04" y2="631.23" gradientTransform="matrix(53.15 0 0 -75.78 -8584.51 48179.03)" gradientUnits="userSpaceOnUse"><stop offset="0" stop-color="#592906"/><stop offset="1" stop-color="#6c320a"/></linearGradient><linearGradient id="linear-gradient-31" x1="182.98" y1="633.18" x2="182.98" y2="632.18" gradientTransform="matrix(123.89 0 0 -163.74 -21636.23 103969.8)" gradientUnits="userSpaceOnUse"><stop offset="0" stop-color="#9bf5f7"/><stop offset="1" stop-color="#8ed6f0"/></linearGradient><linearGradient id="linear-gradient-32" x1="182.74" y1="631.65" x2="182.74" y2="630.62" gradientTransform="matrix(104.78 0 0 -65.94 -18100.43 41966.93)" gradientUnits="userSpaceOnUse"><stop offset="0" stop-color="#fff"/><stop offset="1" stop-color="#fff" stop-opacity="0"/></linearGradient><linearGradient id="linear-gradient-33" x1="182.74" y1="631.97" x2="182.74" y2="631.08" gradientTransform="matrix(104.78 0 0 -65.94 -18100.43 41966.93)" gradientUnits="userSpaceOnUse"><stop offset="0" stop-color="#fff"/><stop offset="1" stop-color="#c2f2f8"/></linearGradient><linearGradient id="linear-gradient-34" x1="182.1" y1="632.03" x2="181.92" y2="631.28" gradientTransform="matrix(73.77 0 0 -76.12 -12417.81 48345.25)" gradientUnits="userSpaceOnUse"><stop offset="0" stop-color="#321700"/><stop offset="1" stop-color="#441f00"/></linearGradient><radialGradient id="radial-gradient" cx="182.54" cy="626.78" r=".88" gradientTransform="matrix(24.8 20.01 20.01 -24.8 -15795.27 12066.22)" gradientUnits="userSpaceOnUse"><stop offset="0" stop-color="#65079d"/><stop offset="1" stop-color="#5f048c"/></radialGradient><radialGradient id="radial-gradient-2" cx="182.58" cy="632.18" r=".55" gradientTransform="matrix(96 0 0 -96 -16487 60828)" gradientUnits="userSpaceOnUse"><stop offset="0" stop-color="#4575d6"/><stop offset=".35" stop-color="#00a8ec"/><stop offset=".66" stop-color="#00c7f4"/><stop offset="1" stop-color="#02fdfe"/></radialGradient><style>.cls-17,.cls-18,.cls-26,.cls-29,.cls-30,.cls-35,.cls-37,.cls-45,.cls-51,.cls-54,.cls-74,.cls-75,.cls-77,.cls-84,.cls-85{fill-rule:evenodd}.cls-17{fill:#7f2f01}.cls-18{fill:#1c0d07}.cls-26{fill:#e5a992}.cls-29{fill:#9c4c34}.cls-30{fill:#f6abb2}.cls-35{fill:#fea85a}.cls-37{fill:#ee8141}.cls-45{fill:#8c2d0d}.cls-51{fill:#df7d4a}.cls-54{fill:#8b2e0e}.cls-74{fill:#843f11}.cls-75{fill:#70340b}.cls-77{fill:#622e09}.cls-84{fill:#321700}.cls-85{fill:#462001}</style></defs><path d="M1665.82.13c5.85 0 19.88 20.9 23.36 25.42a200.7 200.7 0 0119 29.77 214.89 214.89 0 0121.54 66.23c7.09 45.88-.2 94.08-21.75 135.3-24.11 46.13-67.1 78.12-116 94.12-58 19-103.17 26.63-162.2 42.27-11 2.92-35.76 8.31-46.88 10.88-83.18 19.28-166.41 36.71-257.86 51.07-21.56 3.39-50.31 7.51-72 10.89-71.07 11-143 18-214.6 24.28-18.82 1.64-37.22 3.28-56.09 4.18-46.61 2.23-103 2.23-145.4 3.07-197.21 3.89-368.75-41.56-493.28-153.38V344C27.31 246.68-28.06 149.17 16.37.13z" fill="url(#linear-gradient)" fill-rule="evenodd"/><path d="M1164.12 364.65c7 0 45.85-9.69 76.16-26.28 40.07-21.93 50.84-44.94 32.11-48.67-15.13-3-34.13 20.83-62.55 40.33-33.36 22.9-54.51 34.62-45.72 34.62z" fill="url(#linear-gradient-2)" fill-rule="evenodd"/><path d="M1153.63 348.39c-6.15-12.64-13.75-24.5-20.69-36.7-8.7-14.2-14.41-28-3.6-43 34.79-54.55 10.83-68.38 47.18-54.23 7.14 1.81 15-1.09 22 .06 8.76 5.56 4.44 18.29 3.32 26.85a75.06 75.06 0 001.23 34.69c7.08 23.43 20.68 48.22 39 63.61 2.84-.73 3.09 4.47 4.74 6 .83 1.87 4.51 2.75 3.56 5.11-3.51 8.5-14.2 17.19-23.43 18.81-3.76.56-10-.32-8.28-5.51 7.26-2.19 10.34-7.44 11.16-14.32-2.56.08-4.92-.83-5.2-3.63.63-1.17 2.36-1.05 3.73-1.69-19.2-16.78-39.72-35.19-48.61-59.7-5.2-9.9-.27-30.12-11.81-33-5.94 10.77-13.19 20.71-19 31.56-5.46 10.85 5.06 21.87 7.23 32.55 4.49 10.93 4 23.8 9.2 34.2a2.1 2.1 0 011.43 2.27c-.62 3.59 2.31 7.09 1.78 10.47-3.53 5.5-21.86 8.35-28.62 9.22-5.42 0-4.7-6.61-.79-8.4 4.42-.63 9.69-4.8 12.14-8.46-2.48-.94-3.11-2.68-3.22-5-.13-3 4.24-.43 5.9-.36a7.21 7.21 0 00-.37-1.4z" fill="url(#linear-gradient-3)" fill-rule="evenodd"/><path d="M1145.42 237.07c1.51-1.36 22.94-19.63 21.73-12.72-2.36 8.37-.28 19.35.28 28.2-5.7 10.52-12.88 20.16-18.46 30.74-5.61 9.13 5.12 22.81 7.23 32.55 2.63 7.34 4 15.17 5.55 22.8a49.08 49.08 0 01-10.42 5.11c-7.41-16.67-30.94-44.56-27.86-61.58 5.12-16 16.78-29 22-45.1z" fill="url(#linear-gradient-4)" fill-rule="evenodd"/><path d="M1155.09 95.16c.19-1.24 1.32-1.43 2.4-1.43h.29l.13-.37c.52-1.38.88-1.75 2.16-1.65h.73a1.62 1.62 0 001.87-.87l.08-.15a2.49 2.49 0 012.48-1.42 2.57 2.57 0 011.08.39l.42.24.43.22-.08.36a10.54 10.54 0 001.33-.59c1.52-.92 2.76-.51 3.75 1l.37.58a8.85 8.85 0 011.59 4 12 12 0 01-1.89 7.35l-1.23 2c-1 1.67-2.08 3.32-3.2 4.92a9.62 9.62 0 01-7.43 4.22 5.49 5.49 0 00-3.45 1.82l-.35.36-.7.71-.36.34-.1.14-.28.4a1.76 1.76 0 01-.75.65 23 23 0 00-6.77 14.71 15.3 15.3 0 00.83 7.26v.36c-4.8 2.49-7.05 6.73-8 11.83a25 25 0 00-.31 9.56s0 .05-.09.09l-.34.18-.91-.9-.93-.89a21.89 21.89 0 01-2.18-2.34c-5-6.39-6.49-13.69-5.5-21.67 1.06-8.59 5.27-15.55 11.08-21.62 1.4-1.46 2.91-2.83 4.43-4.17l2.76-2.41c.61-.53 1.21-1.07 1.81-1.62a3.52 3.52 0 001-1.58 7.13 7.13 0 012.13-3.28l.43-.42.66-.63.22-.21a1.38 1.38 0 00.29-.58l.11-.33.05-.16v-.9l-.06-.9a12.52 12.52 0 010-2.67z" fill="#cf6634" fill-rule="evenodd"/><path d="M1185.77 252.65c3.55-.72 9 .76 14.62 3.55 0 17.08 6.36 33.84 14.73 48.57-4.53 7.14-8.2 12.72-13.76 14-10.65-14.22-24.13-27.09-22.66-46.28.14-6.07.92-18.28 7.07-19.85z" fill="url(#linear-gradient-5)" fill-rule="evenodd"/><path d="M1208.41 113.06c.42-2.75.82-5.51 1.07-8.28a4.73 4.73 0 00-2.44-4.68 3.21 3.21 0 01-1.2-1.64 29.75 29.75 0 01-.76-3.78c-.38-2.35-1.73-3.74-4.09-3.8-3.58-.1-7.17-.17-10.74 0a10.35 10.35 0 00-6.41 2.61 9.77 9.77 0 00-3 6.78c-.23 3.82-.34 7.65-.52 11.47a70.4 70.4 0 01-.26 3.85 3.84 3.84 0 01-.47 1c-.37-.24-.93-.4-1.08-.74-1-2.23-1.87-4.51-2.79-6.76a7.64 7.64 0 00-.28-.93c-.1-3.15-.42-6.32-.25-9.46.25-4.93 1-9.75 4.07-13.91a19.77 19.77 0 017.75-6c2.07-1 4.43-1.27 6.67-1.88h7.91a38.9 38.9 0 015.63 1.09c2.7.93 5.56 1.6 7.84 3.48a18.08 18.08 0 015.78 7.78c.59 1.66.72 3.5 1.4 5.11s.65 3.48.83 5.22a21.39 21.39 0 01-2.39 11.62 31.44 31.44 0 01-4.81 7.58 5.34 5.34 0 01-3.64 2c.14-.37.25-.76.42-1.11.86-1.87 1.74-3.72 2.6-5.58a4.58 4.58 0 000-3.63 1.64 1.64 0 00-2.9-.61 10.86 10.86 0 00-1.09 1.91 1 1 0 000 .17 3.12 3.12 0 01-.17.65 23.46 23.46 0 00-1.07 2.94c-1.69-.51-1.84-.88-1.58-2.59z" fill="#140900" fill-rule="evenodd"/><path d="M1202.72 77.19l1.15.16a18.88 18.88 0 013.35.74l.6.2 1.22.4a25.16 25.16 0 014.17 1.66c3.27 8.69 3.09 19.86.35 29a1.69 1.69 0 00-1.25.65 5.24 5.24 0 00-.66 1.06l-.28.57-.15.28v.17a3.12 3.12 0 01-.17.65 23.46 23.46 0 00-1.07 2.94l-.34-.11-.15-.05-.27-.11c-.84-.36-1-.78-.89-1.81v-.51c.42-2.75.82-5.51 1.07-8.28a4.73 4.73 0 00-2.44-4.68 3.21 3.21 0 01-1.2-1.64 21.79 21.79 0 01-.58-2.69l-.18-1.09c-.38-2.35-1.73-3.74-4.09-3.8-3.58-.1-7.17-.17-10.74 0a10.35 10.35 0 00-6.41 2.61 9.77 9.77 0 00-3 6.78c-.09 1.53-.16 3.06-.23 4.59l-.19 4.59c0 .76-.06 1.53-.1 2.29a70.4 70.4 0 01-.26 3.85 1.59 1.59 0 01-.23.6l-.16.29a1.09 1.09 0 00-.08.15l-.27-.15-.28-.15a1 1 0 01-.53-.44c-.59-1.34-1.14-2.7-1.69-4.05l-1.1-2.71a7.64 7.64 0 00-.28-.93l-.09-2.1-.11-2.11a51.08 51.08 0 010-5.25c.25-4.93 1-9.76 4.07-13.91a19.89 19.89 0 0111.59-7.16l1.7-.39 1.13-.28h7.91z" fill="url(#linear-gradient-6)" fill-rule="evenodd"/><path d="M1191.78 90.64c4.3.64 12.22-2.06 13.41 3.89.48 2 .33 4.43 2.21 5.78 4.19 2.93 1.56 8.86 1.19 13-.38.88.57 2.88 1.45 1.84.15-.4.61-2 .74-2.46.2-.11.18-.36.31-.52l-.07-.08c1.74-6.24 6.88-.84 4.06 3.62-2.19 7.32-5.06 4.7-6.19 8.73-.48 2.31-1.54 5.29.68 7-4 5.09-10.81 7.36-17.22 7.39-3.32.58-11.78 4.66-8-3.61l2.47-.61a18.56 18.56 0 01-7.06-11.83c-.93-2.85-.43-6 0-9 .15-10.11-2.54-23.35 12.02-23.14z" fill="#ce6432" fill-rule="evenodd"/><path d="M1153.13 102.24a21.52 21.52 0 015.7 1.18q8 2.82 8.27 7.28a9.54 9.54 0 01-6.73 3.33 6 6 0 00-3.8 2.18l-.35.35c-.24.24-.47.48-.71.7l-.1.14-.28.4a1.76 1.76 0 01-.75.65 23 23 0 00-6.77 14.71 15.3 15.3 0 00.83 7.26v.36c-4.8 2.49-7 6.73-8 11.83a25 25 0 00-.31 9.56s0 .05-.09.09l-.34.18-.91-.9-.93-.89a21.89 21.89 0 01-2.18-2.34c-5-6.39-6.49-13.69-5.5-21.67 1.06-8.59 5.27-15.55 11.08-21.62 1.4-1.46 2.91-2.83 4.43-4.17l2.76-2.41c.61-.53 1.21-1.07 1.81-1.62a3.44 3.44 0 001-1.58 6.5 6.5 0 011.71-2.85z" fill="url(#linear-gradient-7)" fill-rule="evenodd"/><path d="M1200.92 218.4c-1.41-1.87-3.89-3.43-6.51-2.62-4.29.81-9 .27-13.32.85-7.89 1.58-23-11.95-27.69-3.16-6.55-9.85-.68-19 4.44-27.81 1.78-4.26-.41-11.92-5.18-13.39-3.74-1.65-9.71-1-11.81-5-2.86-8.92-1.85-22.11 7.53-26.67 2.18-1.56 3.28 2.5 5.19 3.08 3.36 1.3 6.8-1.82 9.83-3.05 6.37-3.36 13.62-5.57 20.85-5.21 6.61 7.28 19 2 25.12-3.78 17.5.68 24.88 10.84 31.91 25.28 3 4.34 8.1 8.15 9.27 13.35-2 11.52-16.08 12.21-25.64 11.19-5.91.7-13.25 12.87-7.49 14.8-1.65 11.52-2.39 26.59-14 32.64-.82-3.51-1.6-7-2.48-10.53z" fill="#4bbf65" fill-rule="evenodd"/><path d="M1145.91 146.27c16.38 4.06 78.52-22.48 69.21 9.45a212.61 212.61 0 01-5.48 23.48c-2.78-.35-8.1 8.3-3.08 10.27-2.76 8.81-5.82 17.74-9 26.43-1.85-1-4 .43-6.06.24-.94 0-2.13 0-3.08.09-16.45 3.41-31.16-12-35.07-2.76-2-3.13-2.71-7-3-10.58-.12-6.26 5.12-11.64 7.46-17.23 1.59-2.47.34-5.16-.41-7.69-1-6.71-8.72-6.31-13.78-8.2-6.78-3.11-4.45-19.21-.76-24.32 1 .3 2 .57 3 .82z" fill="url(#linear-gradient-8)" fill-rule="evenodd"/><path d="M1213.81 194.33a35.73 35.73 0 01-7.75-5.25c-2.94-2.4-6-4.58-9.82-5.53-1.79-.45-5.68-1.89-6-1.59-.16.13-2.54.79-3.35 1.21-1.33.69-1.56 1.78-1.93.35a6.75 6.75 0 01-.08-1.11c3.61-2.84.43-.16-.08-.33a18.66 18.66 0 01-2.47 1.61c-1 .48-1.58 0-1.71-1.4-.18-.68.39-1 .74-1.32 3.21-3.25 1.07-1.57 0-.4a1.87 1.87 0 01-1 .72c-1.45.16-1.65-.66-1.42-1.82.3-.41.65-.84 1-1.27 1.69-2 1-1.14.2-1.25l-1.22-1.47a3.19 3.19 0 011.42-2.27 39.49 39.49 0 002.9-3.15 6 6 0 011.25-.91c1.14-.69 2.27-1.4 3.45-2 1.41-.73 2.48.18 3.55.9a8.61 8.61 0 001.91 1.32c2.19.64 4.25 1.85 6.68 1.56a3 3 0 012.78 1.48c1.78 2.35 3.3 5.15 6.31 6a63.45 63.45 0 0010.26 2.24c4.3.52 8.66.64 13 .77a19.28 19.28 0 0010.48-2.42c1.66-1 3.37-1.83 5.06-2.72.08 0 .25.11.38.16.31 2.57.81 5.13.87 7.7a16.32 16.32 0 01-2.69 9.8c-1.52 2.19-4 3.2-6.34 4a25.5 25.5 0 01-6.41 1.06 35.39 35.39 0 01-15.31-2.61l-.83-.28c-1.28-.61-2.55-1.24-3.84-1.82z" fill="#a35321" fill-rule="evenodd"/><path d="M1191.5 168a3.25 3.25 0 01.42.31l.41.35a3.42 3.42 0 001.08.66c.44.12.88.28 1.31.43l1 .36a9.89 9.89 0 004 .81h.36a3 3 0 012.78 1.48c.19.25.38.51.56.77l.56.78a16.2 16.2 0 002.79 3.2c-.78 2.46-3.74 4.77-8.85 6.92a15.72 15.72 0 00-1.69-.51 11.5 11.5 0 00-1.93-.27l-.77-.05h-.63a7.33 7.33 0 01-2-.45c0-.13-1.44.33-1.54.36a7.45 7.45 0 00-2.27.88 3.09 3.09 0 01-1.39.66c-.78 0-.82-1.57-.8-2.07a.9.9 0 010-.13v-.35s-.75.47-1.13.74a9.1 9.1 0 01-1.43.87c-1 .48-1.58 0-1.71-1.4a.91.91 0 01.35-1s0-.33-.14-.24a1.14 1.14 0 01-.49.21 1.33 1.33 0 01-1.35-.42 1.7 1.7 0 01-.14-1.13 2.49 2.49 0 01.68-1.1l.67-.77c.21-.24.45-.44.46-.79 0-.06 0-.13-.07-.14a.16.16 0 00-.1 0 .47.47 0 01-.38-.07 1.33 1.33 0 01-.29-.29l-.69-.83c-.69-.83.59-2 1.2-2.55a12.7 12.7 0 001.49-1.53l.7-.82c.23-.27.47-.54.71-.8a5 5 0 011-.78l1.59-1c.68-.41 1.37-.82 2.08-1.19a2.61 2.61 0 012.87.44z" fill="#be6c33" fill-rule="evenodd"/><path d="M1191.78 90.64h7.92a6.57 6.57 0 012.94.56 3.93 3.93 0 012.55 3.32 6.19 6.19 0 00.15.86l.2.86a8.79 8.79 0 01.15.87 4.3 4.3 0 001.71 3.18l.21.16a5.07 5.07 0 012.09 4.24 29.43 29.43 0 01-.55 5.31l-.35 2-.21 1.32a2.09 2.09 0 00.29 1.72 48.32 48.32 0 01-5.49 12.9c-2.22 3.44-9.1 7.4-14.56 7.4a22.87 22.87 0 01-3.72-.28l1.75-.43-.09-.08-.55-.46-.48-.44-.43-.4-.16-.15-.32-.32-.33-.34-.35-.38a21.68 21.68 0 01-1.79-2.27 16.87 16.87 0 01-2-4.57l-.17-.64-.16-.61-.14-.6-.12-.56-.21-1-.21-1-.06-.29v-.11a5.41 5.41 0 01-.06-1.43v-.99l.08-.79.07-.54.13-1 .26-1.79v-.14c.09-1.71.07-3.11 0-4.39v-1l-.1-1.82v-.91a37.23 37.23 0 01.16-5.32c.45-4.47 2.41-7.37 6.61-8.77a15.39 15.39 0 015.3-.87z" fill="url(#linear-gradient-9)" fill-rule="evenodd"/><path d="M1201 130.51c1 0 .71.71-.2 1.66l-.25.24-.27.25a.86.86 0 01-.14.13l-.3.26-.32.27-.17.13-.35.27-.18.13-.38.27-.38.27-.4.26-.4.26-.41.25-.42.24-.21.12-.41.23-.42.21-.42.2-.41.19c-.27.12-.54.22-.8.32l-.39.12a4.79 4.79 0 01-1.84.27 17.25 17.25 0 01-6.08-2.08l1.43-.35-.09-.08-.1-.08c4.85 1.16 9.19-.68 13.36-3.32l.64-.42.32-.21z" fill="#8f451a" fill-rule="evenodd"/><path class="cls-17" d="M1194.11 172.74a41 41 0 00-4.5 2.41c-2.61 1.82-5.1 3.79-7.61 5.73-.4.31-1.36.6-1.28.15 3.1-3.92 11.43-9.11 13.39-8.29zM1180.5 176.57c.37-.42.86-.78 1.26-1.16a15.88 15.88 0 011.84-1.53c1.06-.73 2.16-1.4 3.27-2.06a7.74 7.74 0 013.19-1.5h.06a.08.08 0 01.05 0 .46.46 0 01.07.16c0 .24-1.08.73-1.29.86-.49.3-1 .59-1.49.87a25 25 0 00-7.51 5.93c-.2.24-.14-.33-.12-.41a2.46 2.46 0 01.38-.82 2.7 2.7 0 01.29-.34zM1198.42 174.53s.09.07.15.18a.14.14 0 010 .06c0 .14-.91.58-1.07.67l-1.25.72-2.5 1.43-5 2.84-.9.51a9.66 9.66 0 01-2.41 1.19c-.12 0 0-.37 0-.4a2 2 0 01.51-.39c.34-.27.69-.52 1-.78.7-.5 1.41-1 2.14-1.45a47.85 47.85 0 014.47-2.52c.86-.43 1.72-.83 2.6-1.22l1.29-.54.68-.27c.15-.02.22-.05.29-.03zM1192.18 181.75a41.53 41.53 0 013.83-2.53 11.24 11.24 0 013.83-1.09c-.92.47-1.83 1-2.77 1.4-1.62.76-3.27 1.48-4.9 2.21z"/><path class="cls-18" d="M1203.58 102.06a1.89 1.89 0 01-.48 1.33c-.09.11-.87-.09-1.15-.34a7.75 7.75 0 00-5.9-2.14c-.4 0-1.23-.5-1.21-.73a2.84 2.84 0 01.71-1.9 5.85 5.85 0 012.09-.7c2.9.17 5.43 1.99 5.94 4.48zM1200.59 106.12c.18 1.1.34 1.89.42 2.69a1.88 1.88 0 01-1.55 2.1c-1.18.11-1.61-.73-1.66-1.62a28.12 28.12 0 01.22-3.36c-.5.36-1.15.85-1.79 1.33a1.75 1.75 0 01.48-2.41c2.18-1.37 6.86.63 7.24 3.1 0 .07-.06.15-.19.45zM1186.91 106.52a19.59 19.59 0 01.35 2.76 3.13 3.13 0 01-.59 1.67 1.39 1.39 0 01-2.47-.39c-.21-.83-.14-1.73-.4-3l-1.69 2.19a3.68 3.68 0 011.89-4.1 3.62 3.62 0 013.85-.06 6.45 6.45 0 011 1.68l-.42.18zM1200.41 118c-2.21 3.54-4.46 6.68-8.46 8.12-2.1.75-3.28.11-4-1.91a12.18 12.18 0 00-1.22-2.06zM1187.55 98c.85.07 2 0 2.07 1.28.08 1.06-.79 1.86-2 2.11a15.12 15.12 0 00-2.81.91 7 7 0 00-1.39 1.06c-.27.21-.55.41-.83.61l-.42-.94a5.33 5.33 0 015.4-5zM1191 117.32a3.6 3.6 0 01-1.23 0c-.74-.3-1.74-.59-2-1.17-.22-.43.45-1.33.82-2a6.67 6.67 0 01.92-1c.28-.29.55-.6.82-.9l.33.17c-.28.54-.51 1.1-.84 1.61s-.82 1.11-1.36 1.81l2.69 1.13z"/><path d="M1211.85 112.49c.21-.11.18-.36.32-.52.24-.07.47-.13.7-.22 1.15-.48 2.31.22 2 1.39a23 23 0 01-1.61 4c-.07.16-.48.18-.73.27 0-.26-.16-.54-.08-.75.41-1.07.87-2.12 1.32-3.2a1.76 1.76 0 00-2.36 1.32 6.29 6.29 0 01-.52 1c.31-1.08.63-2.15.94-3.23z" fill="#7c3900" fill-rule="evenodd"/><path class="cls-17" d="M1156.14 97.68h.27c.19.52.37 1 .62 1.73a5.2 5.2 0 015.58-2.1l.81-1a5 5 0 01.8.94 1.55 1.55 0 002.77.19c.8-1.13 1.93-2 2.44-3.41.61-1.77 1.8-1.86 2.84-.27 1.31 2 2.13 4.22 1.41 6.68a5.29 5.29 0 01-.83 1.33c-.31-2-.65-3.9-.88-5.78-.11-.92-.68-1.46-1.43-1.35-.33 0-.57 1-.73 1.65a3.51 3.51 0 00.12 1.09 3 3 0 01-2.1 3.5 13.92 13.92 0 00-3.15 2.4 7.08 7.08 0 01-1.24.94c-.23-1.4.68-2.23 1.49-3 .61-.6 1.47-1 2.14-1.52a22.57 22.57 0 001.66-1.83c-1.75.56-3.16 1-4.59 1.43a1.83 1.83 0 01-1.31-.3 3.38 3.38 0 00-4.18.33c-.88.63-1.71 1.06-2.71.27l.21-1.88z"/><path class="cls-17" d="M1166.91 92.09l.52.31-1.28 2.11-.51-.31c.43-.7.85-1.41 1.27-2.11z"/><path d="M1191.54 125.92c-1.94 1-2.81.47-3.5-1.69-.17-.51-.4-1-.55-1.37l11-3.33a19.84 19.84 0 01-6.95 6.39z" fill="#c65a35" fill-rule="evenodd"/><path d="M1286.58 254.55c.86 1.16 3 3.67.52 4.25a40.41 40.41 0 01-9.12.67c-5.74 0-11.54 0-15.63 4.08-1.16 1.24-2.47 2.52-3.68 3.69-23.43 24.16-42.26 52.43-61.53 79.9-3.39 5.06-7.28 10.73-10.61 15.79-1.14 2.76-3.85 5.23-3.5 8.36.32 1.74.3 3.72.6 5.4-.08 1 1.76 7.38 3.45 9.08 1.84 2.27 3.58 4.5 3.67 4.54 1.46.76 2.3 2.38 4.09 2.59 1.25.31 2 .12 2.78-1.44 1.91-3.67 7.9-17.58 9.85-20.36 8.41-14.45 22.88-23.89 35-34.44 4.42-2.47 7.32-4.28 8.83-5a13.31 13.31 0 015.17-.9c13.45 1 12.82 22.74 16 33.13 3.06 10.77 3.93 22-1.45 32.29-3.79 8.27-7.4 12.43-14.14 18.45-5.16 5-8.26 11.9-11.39 18.29 36.85-7.13 73.34-14.54 109.34-22.46-2.12-4.68-15.43-29-6.29-29.64a84.37 84.37 0 0030.15-13c11.15-7.51 45.92-37.13 34.89-51.37-10.63-11.08-22.71-20.91-33.34-32a92.37 92.37 0 01-14.24-18.74c-4.52-6.47-7.36-18.87-17.71-15.72-10.56 4.13-21.59.63-24.53-11.12 0-.61-.56-.87-1.6-.87-4.9 0-19.46 5.72-21.75 6.64-3.63 2.22-16.29 4.15-13.8 9.91zm65.1 50.62c2.4-5.93 16.58 8 19.29 10.79 11.28 10.39 5.91 21.09-2.79 30.87-7.67 8.07-15.19 17-24.9 22.61.12-9-.17-18.37 1.29-27.31 1.82-12.39 4.73-24.68 7.11-37z" fill="url(#linear-gradient-10)" fill-rule="evenodd"/><path d="M1290.57 248.69c19 7.57 8.2 16.49-7.35 22.19-2.94 1.2-7 2.76-9.94 4-3.77 1.57-6.89 2.83-9.3 5.9-4.26 4.79-8.4 10.06-12.4 15.07-22.3 28.34-44.39 57.83-66.09 86.66-.23-1.07-.62-2.06-.86-3.11a3.23 3.23 0 01-.75-2.85c-.3-1.68-.29-3.66-.6-5.41-.35-3.12 2.35-5.59 3.5-8.35 3.33-5.06 7.21-10.72 10.61-15.79 18.83-27 37.45-54.53 60.1-78.52 1.67-1.6 3.52-3.38 5.1-5.07 3.42-6.83 27.65-1.47 25.71-6.79a19.26 19.26 0 00-1.56-2.36c-1.62-2.38 1.78-4.82 3.83-5.57z" fill="url(#linear-gradient-11)" fill-rule="evenodd"/><path d="M1272 326.36c14.55 3.38 11.5 50.08 7.53 60.33l-3.37 8.45-6.54 17.11-6.16 17.34c-5.93 1.17-12.25 2.45-18.19 3.6q7.17-14.6 11.5-18.31 4.7-4.42 6.45-6.4a60.16 60.16 0 008.35-13.34 41.92 41.92 0 003.37-12.66c.29-4-.39-7.52-2.73-19.35 0-.17-.2-.73-.33-1.34s-.24-1.29-.31-1.61c-2.3-11.58-3.83-18.73-5.44-22.22a21.23 21.23 0 00-2-3.12 12.58 12.58 0 00-2.56-2.33 17 17 0 00-1.77-1l.25-.34q7.14-5.94 11.95-4.81z" fill="url(#linear-gradient-12)" fill-rule="evenodd"/><path d="M1270.85 194.5a13 13 0 01-11.16-4.25c-.72-.79-1.38-1.64-2.08-2.45a6.34 6.34 0 01-1.66-4.06 9 9 0 00-.41-2c-1.51-5.46-1.18-10.66 2.31-15.32a21 21 0 013.56-3.27 1.79 1.79 0 011.21-.14c3.75.4 7.51.77 11.25 1.28a73.78 73.78 0 0016.87.08 79.33 79.33 0 0015-3.12A47.63 47.63 0 011319 159c5.11 0 9 2.31 12.61 5.57a23.39 23.39 0 015 6.47 74.27 74.27 0 016.14 13.7 32.26 32.26 0 011.08 12.57c-.5 4.69-1.42 9.3-4.2 13.09a76.54 76.54 0 01-8.79 9.5c-2.41 2.31-5.18 4.25-7.79 6.37a4.89 4.89 0 00-1.72 3.82 14.34 14.34 0 00-.2 1.94c.13 1.31-.43 1.89-1.68 1.92-3.58 1-6.51-.26-9.05-2.68a14.41 14.41 0 01-2.44-3.05 4.66 4.66 0 00-2.47-2.31c-1.22-.44-1.37-2-.35-3.35a38 38 0 003.33-5.33c2.19-4 2-8 .51-12.18-.06-.18 0 0 0-.13-.58-1.08-1.19-2.31-2.55-2.34s-1.66 1.23-2.14 2.16a45.45 45.45 0 00-3 9 65.26 65.26 0 01-2.65 7.07c-.35.85-.9 1.45-1.91 1.25a1.68 1.68 0 01-1.35-2c.23-2.09 0-4.2.28-6.29a114.44 114.44 0 00.37-16.35 47.25 47.25 0 00-.66-4.84c-.2-1.45-.48-1.57-2-1.41-3.32.37-6.41 1.63-9.64 2.35a33.23 33.23 0 01-9.4 1.2 5 5 0 01-1.39-.15 17.58 17.58 0 00-2.05-.09z" fill="#4b1176" fill-rule="evenodd"/><path d="M1300.29 162.69c-2.91 6.3-12.87 8.78-20.39 9.8-10.6 1.19-9.45 6.12-7.6 12.44.72 3.08 1.66 6.83-.34 9.59-16.28 2.45-23.55-22.42-10.89-31.13.73-1.07 5 .16 6 .06 11.06 1.62 22.37 2.02 33.22-.76z" fill="url(#radial-gradient)" fill-rule="evenodd"/><path class="cls-26" d="M1278.56 194.09c4.28-.88 8.5-2 12.77-3s4.07-.85 4.6 3.39c1 8.34.14 16.65-.25 24.95.07.88-.29 2 1 2.29 4.12-.25 5.39-24.19 11.34-18.89 8.6 11.18-7.75 21.48-1.66 23 3.77 3.84 6.54 9.11 13 8l.57 4.27c-11.08 3.68-22.51 7.19-32.71 12.9-1.89-2.9-7.71.16-10.61.44-3.54 1.35-4.42-1.13-6.32-3.05 5.89-12.62-3.54-14.19.56-20.18 1-1.91-4.23-.35-6-6.16-3.07-3.45 11.78-13.29 8.24-15.93-2.92-1-1.66-3.66-1.28-5.85.28-2-.14-4.07 1.12-5.73a44.4 44.4 0 005.68-.45zM1185 380.35a20 20 0 004.26 7.67l1.67 2c0 7.09 4.4 22.62-4.43 26-1.14 5.64-8.68 3.12-12.85 3.33-3.9-.48-8.13-3.32-11.92-5-4.16-1.75-3.25-4.6-3.7-8.47-2.63-3.3.52-7 1.74-10.18a60.88 60.88 0 0116.69-20.08c2.12-2.09 4.83-.28 7.13-2.06.51 2 .05 4.23 1.33 6 0 .25.06.5.08.76z"/><path d="M1296.14 211c.36 1.93-2.06 12 1.29 10.75-2.71 7.87-6.48 28.67-16.21 28.69-4.52.72-8.13 3.16-10.73-1.88l-.12-.29c1.59-4.17 3.32-10.24 0-14.08a3.94 3.94 0 01-.62-2.55c-.63-1.7 2.65-4 .19-4.7-2.81-.12-4.11-2.64-5.13-4.85-3-3.39 11.41-13.05 8.38-15.87-3-1-1.84-3.68-1.42-5.91.28-2-.14-4.07 1.12-5.73 7.17 0 13.9-2.79 20.9-3.89 4-.67 2.28 17.31 2.36 20.31z" fill="url(#linear-gradient-13)" fill-rule="evenodd"/><path d="M1183.61 373.6c.49 1.93.08 4.27 1.3 5.95-5.65 10.79-13.75 30.26-24.36 34.13-2.24-1.53-2.74-3.29-2.2-6.65-.6-2.12-2.21-4.1-.82-6.38 1.44-3.75 3.79-7.06 5.52-10.61 3.37-5.32 8-9.81 12.69-13.87 2.25-2.49 5.33-.87 7.87-2.57z" fill="url(#linear-gradient-14)" fill-rule="evenodd"/><path class="cls-29" d="M1277.23 202.36c-1.35.66-2.37 1.78-3.91 2.15-2.49-7.82 14.65-9.1 11.8-2.07-2.6-1.75-5.27-1.24-7.89-.08zM1277.36 208.07a10.58 10.58 0 01-1.08-.37 7.28 7.28 0 01.51-1c1.35-1.92 3.37-1.94 5.35-1.63.62.09 1.12 1 1.61 1.93h-1.59c-1.05-.11-1.47.22-1.47 1.38a28.49 28.49 0 01-.5 4.68 1.4 1.4 0 01-1.06.86 1.43 1.43 0 01-.9-1c-.1-1.51 0-3 0-4.74a3.61 3.61 0 01-.87-.11zM1304.83 207.75a1.39 1.39 0 012.57 0 6.87 6.87 0 01.45 2.91 22 22 0 01-3 9.33 2.92 2.92 0 01-1 .93c1.07-3.46 2.71-6.71 2.65-10.4a5.24 5.24 0 00-.35-1.36 8.3 8.3 0 00-.9 1c-.39.57-.7 1.19-1 1.79l-.58-.25a33.13 33.13 0 011.25-4z"/><path class="cls-30" d="M1274.71 233c1.75-.73 3.49-1.48 5.24-2.2a3.63 3.63 0 01.67-.15l.09.09c-.11 2.42-1.47 3.95-3.54 5-.39.2-.63.69-.94 1.05a5.57 5.57 0 01-2.15-.38c-.49-.33-.63-1.18-.92-1.81z"/><path class="cls-30" d="M1273.16 234.62l1.55-1.62c1.75-.73 3.49-1.48 5.24-2.2"/><path d="M925.47 356.59c6.39-5.93-39.74-27.76-73.66-49.43s-90.11 9.14-60.49 27.08 72.76 40.73 75.75 38.2-51.72-33.84-39.73-42.57 91.73 32.65 98.13 26.72z" fill="url(#linear-gradient-15)" fill-rule="evenodd"/><path d="M915.31 265.94c3.92-5.45 6.2-12.16 7.76-18.65 6.24 8.76 17.52 17.6 20.67 28.19 2.33 17.93-13.75 42.87-19.87 59.51-3.41 2.64-6.14-3.5-9.41-4.42-1-1 .78-3.2.61-4.93 2.45-10.87-.59-22.13 2-32.69.41-3.43 2.9-7.81 4-10.32-3.93-5.91-11.16-6.46-16.75-9.48 3.46-2.2 8.23-4.12 10.91-7.21z" fill="url(#linear-gradient-16)" fill-rule="evenodd"/><path d="M864.92 283.83c-2.9-.58-5.51-3.2-8.27-3.39 1.46 4 6.86 11.76 9.26 14 5.18 5-4.74 6.79-6.41 10.77-4.85 9.57-2.34 22.82-5.63 33.53.77 1.09 2.14 1.65 2.83 2.91.5.67.45 2.31 1.41 2.13 3.77-5 8.11 2.06 10.2-4.53 11.45-20.89 25.64-32.87 20.74-59.53-6.48 5.47-16 5.94-24.13 4.09z" fill="url(#linear-gradient-17)" fill-rule="evenodd"/><path d="M924.66 249.21c3.32 4.34 8.17 9.51 11.67 13.78 5.33 5.88 10 13.8 7.08 21.87a66.78 66.78 0 01-4 14.44c-1.32 3.26-2.63 7.4-4.19 10.53-2.16-9.77-3.85-20-5.5-29.88-3.63-2.64-12.79-9.41-15.57-12.81 4.91-5.07 7.24-13.13 9-19.85a18.2 18.2 0 011.59 1.92z" fill="#feb764" fill-rule="evenodd"/><path class="cls-35" d="M903.62 240.64a38.69 38.69 0 01-.17 5.05 4 4 0 01-3 3.11 9.65 9.65 0 01-6.5.35 2.18 2.18 0 01-1.4-1 24.43 24.43 0 00-1.81-2.62 1 1 0 00-.74-.53c-3.61-.34-7-1.65-10.38-2.77-1.84-1.78-1.78-4-1.47-6.29a25.61 25.61 0 00.09-3.72c0-1.68-.13-3.34 1.12-4.82a2.58 2.58 0 00-.19-3.53c-2.15-2.33-4.24-4.72-6.5-6.94a3 3 0 01-.78-3.36 9 9 0 015.14-6.23c1.68-.71 3.49-1 5 1.28 2.59 3.89 4.75 8 7.27 12.19-.32-1.72.41-3.19.34-4.78a3.87 3.87 0 012.24-3.54 8.27 8.27 0 014-1.29 6 6 0 012.86.67 1.65 1.65 0 011 2 44.27 44.27 0 00-.91 11.43 7 7 0 00.19 2.09c0 .32.12.67.49.7 1 .09 1.59 1 2.53 1.33a2 2 0 011.32 2.17c-.23 3 .33 6 .24 9z"/><path d="M872.91 211.08l11.31 13.34c.94 7.64 2.45 12.1-6 15.67-.69-2.86.28-6.07 0-9-.52-2.56 3.26-4.85.93-7.16-2.1-2.27-4.3-4.78-6.5-6.94-1.83-1.78-.65-4.1.26-5.91z" fill="#f48f4b" fill-rule="evenodd"/><path class="cls-35" d="M876.3 159.22c-3 5.86-13.5-5.79-15-9.47-1.83-3.13 3.48-3.78 2.81-6.16-1.58-3.21-4.07-6-4.77-9.68a3.26 3.26 0 00-2.24-2.44 7.88 7.88 0 01-5.29-7.73c-.21-3.87 5.15-5.66 6.19-1.66.33.77.26 2.23 1.18 2.48a.7.7 0 00.61-.74c-.48-4.27 2.61-8.75-.3-12.69 6.6 2.45 7.4-5.13 10.62-9 1.21 12.49 10.15 2.93 15.34 6.21-4.53 3.77 6.28 7 2.48 15.1 0 1.33-1.37 3-.48 4.12 5.24 6.7-1.75 15.56-8 18.77-1.15.7-3.73 2-3.44 3.46-1.57 2.88 2.85 7 .24 9.39z"/><path class="cls-37" d="M870.53 100q-3 8.45.29 11c3.31 2.51 2.9-1.44 9.73.92 2.12.74-.51 2.9 3.26 4.62s8.19.89 9.88 1.37c.26.08 8.25-13.32 7-13.78q-1.22-.47-31.42-10l-6.25 10zM872.65 153.19c-2.2-.32-4-6-5.57-7.27.37-.77 3.94 2 5.64 2.54 1.14.36 2.78 0 4-.08a30.7 30.7 0 00-2.57 3c-.64 1.06-.22 1.99-1.5 1.81z"/><path d="M845.44 226.37c3.81 3.65 8.89 5.25 13.33 7.93 4.88 2.49 8.28 8.52 14.17 8.45.62-.1 1 .78 1.58.48 1.61-.88 3.53 0 5.1-1 3.23.1 6.63 2.18 10.06 2.44 2.49.58 2.5 4.29 5.34 4.37 2.68.15 5.32 0 7.38-2.11 2.4-4.65-.57-10.55 1-15.36 5.74 3.93 17.82 9.79 19.69 15.69-1.56 10.77-8.6 26.37-20.91 27.44-4.44-2-9.24-3.61-13.26-6.59-.69.38-.38.93-.24 1.4 4.83 9.94-.7 13.17-9.8 15.23-11 1.83-20.31-2.7-27.86-7.46-3.15-3.57-2.55-9.44-4.85-13.63a103.76 103.76 0 01-10.09-27c-.23-4.88 3.34-9.34 5.23-13.72 1.88.52 2.88 2.15 4.15 3.41z" fill="#1f50a6" fill-rule="evenodd"/><path d="M858.77 234.3c7.7 5 10.6 11.06 20.85 7.95.41-.52 1.89.38 2.37.42 3 1.56 7.41.85 9.59 3.48.92 1.47 2 3.1 4 2.94 5.13.24 8.35-1.59 7.65-7.23.51-3.4-1.05-7.05.16-10.27A158.55 158.55 0 01919 242c4 3.23 5.48 5.48 3 10.43-1.94 5-3.49 10.44-7.1 14.55-4-2.56-8.23-5.67-12.08-8.42a21.06 21.06 0 00-3.92-2.41 93.58 93.58 0 00-12.42-3.65c-17.7 3.05-26.07-1.54-34.09-21.55 2.09 1.08 4.39 2.12 6.39 3.34z" fill="url(#linear-gradient-18)" fill-rule="evenodd"/><path d="M915.58 331c3.21 1 4.9 6 8.55 4 .79-.17 1.62-1 2.32.19 2.6 3.63-4.57 5.18-2.94 7.29 3.37 2.56 6 6 9.53 8.41 4.74 3.65 14.35 3 12.05 11.52-1.31 6.47-14.44.89-19 .31-4.93-1.34-8.47-5.23-12.91-7.55-2.53-1.35-5.86-1.74-7.31-4.54-1.14-5.31 4.66-9.74 3.84-15.36.12-3.7 2.14-8 5.88-4.24z" fill="#495cc4" fill-rule="evenodd"/><path d="M857.84 343.73c1.86-3 5.8-2.53 8.63-1.31 2.66 2.82-2.67 9 1.17 15.66.92 6.4 15.86 12.05 8.34 18.3-8 3.38-14.94 1.86-18.86-6.25-1.63-1.81-1.92-4.94-4.53-5.73-8.46-5.15-9.74-9.24-3.17-17 2.22-2.34 1.29-7.37 4.44-8.62a6.46 6.46 0 014 4.91z" fill="#485cc4" fill-rule="evenodd"/><path d="M831.69 150c-.45-3.36 1.73-7.47-1.53-9.9-9-7.91 6.25-15.17 5.33-23.69-.06-3.87-2.15-7.42-1.87-11.35 1.68-8.42 17.29-9.74 17.46-17.93 0-5 6-6 9.82-7 4.2-.27 4.16-.79 6.31-4.13 3.25-6 10.26-3.18 15.31-.91 7.72 3.17 16 4.67 23.53 8.41 4.06 2.1 4.61 7.53 5.72 11.52 6 7.48 16.81 10 23.64 17 6.57 4.36 3.75 11.41 4 17.76 6.15 7.8 15.94 14.65 16 25.7-1.28 5.15-6.56 8.7-10.74 11.67-5.4 1.53-12.34-2.72-17.47.91-3.42 2.58-8.11 7.34-12.6 4.48a1.31 1.31 0 00-1.65 0c-4.14 3.6-6.62 8.79-12.81 8.51-3.33-7.49 4.24-25.32-10.76-23.64-3.19.15 1.16-8.37-7-9.59-2.15-.22-4.78 4.06-6.48 1.6 2.24-4.6 8.92-5.45 11-10.63 1.71-3.14 3.06-7.56.57-10.67a2.54 2.54 0 01-.5-2.47c4.9-11-5.91-12.46-2.2-17.36-5.89-1.66-12.87 5.38-15-5.09-2.58 3.72-3.69 9.72-9.35 8.51 1.73 3.79-.31 7.51-.31 11.36 0 .64 0 1.34-.77 1.51-2.19-.28-1.1-4.41-3.82-4.48-6.16.52-2.88 10.19 1.85 11 3.73 2 2.93 7.75 6.21 10.6.4.5.94 1 .6 1.78-9-4.29-8.75 3-11.6-.27-5-4.67-12.7-1.26-15.68 3.94-1.54 1.53-1.58 3.91-2.71 5.53-2.07-.15-2.48-.94-2.49-2.73z" fill="#3c1901" fill-rule="evenodd"/><path d="M875 72.51C882.73 76 906.7 80.8 909.26 87c2 3.22 1.27 8.28 4.45 10.49 7 5.12 15.21 8.71 21.7 14.6 7.17 5.55 3.47 10.62 4 17.77 5.69 7.29 14.34 13.31 15.83 23.2-8.23 2.68-33.92 5.87-35.6-4.53-.56-4.33-2.42-6.41-6.54-8-12-5.13-16.39-8.67-21.84-20.78a13.67 13.67 0 00-3.38-4.13c-1.91-1.39-5.79-4.79-3.06-7.21-1.87-1.28-4.29.47-6.4.44-5.37 1.41-7.07-.74-8.65-5.53v.06l-.81-1.79-3.2 8.66c-1.25 1.74-3.24 1.67-5.3 1.58a10.6 10.6 0 01.7 3.59c-10.3-3.13-17.24-3.78-21.06-17.56 3.26-3.39 11.56-5.23 11-10.44-.68-4.83 6.68-6.71 10.31-7.32 1.12-.42 2.73 0 3.64-.74 2.43-3.66 4.33-8.06 9.93-6.83z" fill="url(#linear-gradient-19)" fill-rule="evenodd"/><path d="M877.73 141a5 5 0 01-5.5.17 4 4 0 01-1.16-3.11c.16-.73.57-.59 1.09-.41 1.69.59 3.19 1.65 5 2 .56.11 1.11.3 1.66.45v.16c-.52.04-.74.47-1.09.74z" fill="#fb8351" fill-rule="evenodd"/><path class="cls-45" d="M888.85 242.18a17.31 17.31 0 015.26-3.59 1.79 1.79 0 001.13-2.43 12.41 12.41 0 01-.21-2.78c0-.53 0-1.08-.56-1.47a4.25 4.25 0 00-1 1.32c-.84 1.33-1.54 1.52-3 .82s-1.5-1.09-.8-3.07c.54 1.3 1.09 2.38 2.41 2.73a8.24 8.24 0 011.46-2.63 15.45 15.45 0 01-2.35-5.47c-.62-2.18-.66-2.18-2.92-2.33-.2 0-.45.05-.54-.23 2.06-1.05 3-.83 4.18.94a13.94 13.94 0 011.39 3.45 8.37 8.37 0 001 2.17c.16.23.26.69.64.54.72-.28.76.27.85.66.5 2.16.6 4.38.9 6.57a1.56 1.56 0 01-.81 1.7 49.26 49.26 0 00-7.14 4.63c-.08.07-.25 0-.42 0-.43-.75.15-1.16.55-1.57zM897.55 233.45c-.25-1.06-.08-1.36.91-1.57-.08 2.37 1.22 4.18 2.49 6a1.26 1.26 0 01.13 1.64 23.74 23.74 0 00-1.21 2.42c.41.71 1.22.85 1.81 1.72a2.8 2.8 0 01-2.24-.92 1.39 1.39 0 01-.17-1.72c.35-.7.69-1.42 1-2.12-.84-.89-2.29-.32-3.08-1.27.45-1.11 1.36-.33 2-.59a17.84 17.84 0 01-1.72-3.58zM870.32 123.51a13 13 0 01-.34 2.78c-.24.71-.55 1.37-1.38 1.41a1.76 1.76 0 01-1.68-1.13 5.82 5.82 0 01-.58-3.34c0-.3.23-.59 0-1a2.53 2.53 0 00-1.65.9c-.38.43-.89.91-1.44.3s-.06-1.09.39-1.46c1-.81 1.82-1.76 3.19-2a4.12 4.12 0 015.13 3.68c-.63.35-1.02-.35-1.64-.14zM884.31 127.93c-.26.62-.6 1.25-1.43 1.14s-1-.62-1.16-1.28a5.74 5.74 0 01-.25-1.7c0-.34.13-.74-.2-1-1-.8-.54-1.67-.09-2.49a4.49 4.49 0 014.55-2.34 2 2 0 011.77 1.56c.24.85-.32 1.3-1 1.71-.78-.26-1.2-1.91-2.47-.73a5.52 5.52 0 01.28 5.13zM871.15 116.86a42.37 42.37 0 00-4.34.62.75.75 0 01-.9-.39 1.5 1.5 0 010-1.53c.82-1.69 4.24-2.74 5.88-1.84a1.45 1.45 0 01.68 1.51 1.37 1.37 0 01-1.32 1.63zM879.08 140.47a5.23 5.23 0 01-6.7 2.3 4.38 4.38 0 01-2.06-5.19 1.27 1.27 0 011.78-.7c1.88.87 3.94 1.21 5.77 2.2.64.35 1.47.13 2.11.56-.26.54-.79.3-1.18.45a8.13 8.13 0 01-4.19-1 8.37 8.37 0 00-2.92-1.11 2.44 2.44 0 001.29 3.09 4.23 4.23 0 004.41-.34c.42-.29.79-.75 1.41-.52.1.12.29.24.28.26zM881.33 117.35c-.46.12-1.14.28-1.42-.33a2 2 0 010-2 2.77 2.77 0 011.81-1.25 5.29 5.29 0 013.91.84c1 .71.66 1.9.54 3.24a5.51 5.51 0 00-4.84-.5zM877.4 131.83c-1-3-.76-6.32-.9-9.58 0-.17.26-.34.63-.28a8.39 8.39 0 01.83 3.62 32.18 32.18 0 00.7 5.53c.12.63.5 1.52-.21 1.8a3 3 0 01-2.86-.18c.47-.75 1.33-.16 1.81-.91zM854.68 126.58c-1.45-.69-1.91-3.28-.8-4.29a1.25 1.25 0 011.36-.29 3.2 3.2 0 011.51 1c1.26 1.71 1.66 3.75 2.2 5.75-1-.78-1.27-2-1.84-3s-.79-2.41-2.34-2.59c-.69 1.18.23 2.32-.09 3.42z"/><path d="M876 153.78a8.57 8.57 0 01-.26-2c.86-.79 3.32-.54 7.38.73l-3.24 5.61-3.12.77c.49-1.83-.58-3.42-.76-5.15z" fill="#1394dd" fill-rule="evenodd"/><path d="M840.51 142.7c3.91-2.78 10.32-3.08 13.28 1.47 1.83-1.48 3.65-2.9 6.09-2.34 1.51.2 5.78 1.2 4.17 3.38-4.34 2.61-2 5.36.26 8.57 2.66 3.15 6.13 6.17 10.27 6.77 1.74-.77 4.8-6.41 5.24-7a7.1 7.1 0 00-4.16-1.68 2.83 2.83 0 01.4-2c1.83.33 3.18-.71 4.43-1.74 5.07-2.36 9.21 4.49 7.85 9.09 17.17-2.3 8.68 18.48 12.45 28.18a130.31 130.31 0 01.72 21.18c-.07 1.33-.21 2.62 1.12 3.63 2.37 3 1.81 7.51.91 11-.62 2.43-3.15 2.67-4.69 4.11-2.23-3.44 3-12.49-1.21-13.47-3-1-7.24.74-7.55 4.22.1 1.49-.68 2.84-.65 4.32 0 .2-.12.43-.55.49-2.87-3.67-5.39-13.65-10.5-13.57-3.89.93-7.76 5.72-5.62 9.23 2.17 3.26 9.18 6.82 6.83 11.11-1.46 3.85-2.13 10.89.13 14.48-.76 1.75-3.08.46-4.44 1.39-5.91.36-10.25-4.18-14.71-7.56-6.59-4.26-14.05-6.92-19.29-13-4.25-14.1 14.21-4.19.89-22.08-6.18-9.88-9.89-21.88-7.73-33.08-.69-9.37-2.13-19.31 6.06-25.1z" fill="#14a3d9" fill-rule="evenodd"/><path d="M899.57 171.68c-.18 11.76 3.27 23.45 1.91 35.38-.59 2.34 2.3 3.39 2.41 5.67.7 4.05.92 10.06-3.78 11.71a2.1 2.1 0 00-1.26.86c-1.15-3.49 0-7.3.47-10.84.39-5.18-9.1-2.83-9.23 1.38a9.32 9.32 0 01-.44 3c-.38.7.24 1.82-.76 2.06-2.9-3.94-5.1-12.38-9.9-13.67l6.45-3.36 2.27-37.77 11.73-1.13a31.67 31.67 0 01.13 6.71z" fill="url(#linear-gradient-20)" fill-rule="evenodd"/><path d="M859 154.34l17.71 40.89c8.23 5.64 14.41 9 9.1 20.34-2-2.71-3.28-8.79-7.43-8.28-3.88 1-5.85 4-6.32 7.57.91 3 4.52 5.06 6.29 7.78-5.35 2.32-7.37 1.55-11.12-.59-5.91-2.94-2.5-10-9.38-13.62-11.67-10.75-17.94-26.31-22.65-41.25z" fill="url(#linear-gradient-21)" fill-rule="evenodd"/><path d="M786 212.55c.15 2.51.31 5 .45 7.54v.73a3.69 3.69 0 00.09 1 4 4 0 01-1.09 4l-.13.14-.13.13-.13.14-.14.13-.07.06-.14.14-.15.13-.07.06-.2 2.46c.72 2.18 1.46 4.37 2.16 6.56l.23.73c.35 1.1.68 2.2.92 3.32.32 1.43 0 2-1.19 2.31h-.45l-.59.11-.51.1-2.45.48.06.51v.49c.05.48.1 1 .19 1.41a3.27 3.27 0 01-1 3.43 3.1 3.1 0 00-.77 1.42l-.06.19-.09.28c-.1.34-.17.69-.24 1l-.09.53c-.07.35-.14.7-.24 1-.18.59-.37 1.18-.57 1.76l-.39 1.17c-.13.39-.26.78-.38 1.17l-.18.59a4.08 4.08 0 01-3.5 3 14 14 0 01-5.74-.33l-.37-.09-.36-.09-.52-.13-.52-.12a29.27 29.27 0 00-2.9-.6 3 3 0 00-1.52.14 1.16 1.16 0 00-.47.44l-.09.12-.09.13-.18.25c.05 0-.24.25-.84.69h-.78a38.94 38.94 0 00-5 0l-1.15.06c-.64 0-1.28.06-1.91.07.57-.95 1.15-1.9 1.73-2.85 1.66-2.7 3.37-5.36 5.1-8l1.88-2.9.88-1.36.59-.91c.1-.15.2-.3.29-.46l.58-.91a131 131 0 009.24-16.43 14.93 14.93 0 012.53-3.63l.28-.32.29-.32.87-1 .29-.31c1.55-1.74 3.14-3.45 4.74-5.15l2.4-2.55 1.59-1.7z" fill="#e9955a" fill-rule="evenodd"/><path class="cls-51" d="M765.48 241.38a19 19 0 001 9c2.48 6.49 6 9.28 9 10.5l-.33.08a14 14 0 01-5.74-.33l-.73-.18-1-.25a29.27 29.27 0 00-2.9-.6 3 3 0 00-1.52.14 1.16 1.16 0 00-.47.44l-.18.25-.18.25v.05l-.07.07-.12.09-.26.21-.37.27-.81-.05a38.94 38.94 0 00-5 0l-1.15.06c-.64 0-1.28.06-1.91.07l1.73-2.85c1.66-2.7 3.37-5.36 5.1-8l1.88-2.9.89-1.36.87-1.37.58-.91c.46-.71.9-1.42 1.35-2.14z"/><path d="M846.4 473.37a87.08 87.08 0 001.7 14.23c.13.57.22 1 .37 1.55-4.38.37-8.72.86-13.07 1.25-5.55.5-11.1.9-16.64 1.32-.87-1.6-.73-3.48-1.75-5.07-.76-1.6-2.4-3.52-1.4-5.33 10.39-1.82 20.94-4 30.79-7.95z" fill="#e98645" fill-rule="evenodd"/><path d="M793.3 472.81c3 .59 6.05 1.25 9.1 1.76 1.31.22 2.65.33 4 .42l1.6.1c1.46.09 1.8.46 1.74 2a4.55 4.55 0 004.62 4.27h1.27c.1.41.18.84.26 1.27l.11.66a7.73 7.73 0 00.83 2.68l.17.25a8.56 8.56 0 011.33 3.08l.18.71a13 13 0 00.57 1.73l-12.14.9-.31-.44-.17-.21a56.63 56.63 0 01-4.74-7.07c-.41-.69-.87-1.35-1.34-2l-1-1.31q-.48-.65-.93-1.32l-.91-1.38-1.77-2.77c-.3-.46-.6-.92-.91-1.38a10.24 10.24 0 00-.77-1l-.55-.61c-.1-.1-.19-.21-.28-.31z" fill="#d07051" fill-rule="evenodd"/><path class="cls-54" d="M778.82 225.28c1.12.21 2.26.37 3.37.64a24.27 24.27 0 012.31.8c-.07.82-.13 1.64-.2 2.46l-1.68.48a29 29 0 01-.79 3.15c-.14.39-.8 1-1 .88-.43-.14-1-.69-1-1.09-.06-1.43.1-2.87.19-4.51a2 2 0 01-1.13-2.82zM775.45 245.25c1.41 1.16 2.83 2.3 4.19 3.52.15.13 0 .83-.19 1a5.57 5.57 0 01-1.55.95c-.24.1-.76.09-.85-.06-.85-1.39-1.68-2.8-2.4-4.25-.17-.34.11-.9.19-1.42a3.07 3.07 0 01.61.26zM780.25 222.61a3.82 3.82 0 013.93-.74c.93.48 1 1.23.72 2.35zM761.58 261.06a5.83 5.83 0 012.35-5.91z"/><path d="M825.55 313.33c.62 1.16 14.56 30.32 18.77 39.21 1.07 2.26 4.13 4.73 4.81 7.14a10.38 10.38 0 010 6.44q.12 7.92 0 8.34c-.57 1.91-4.16 2.29-4.81 4.17-.12.37-6.17.48-8.59-.83a25.23 25.23 0 00-4.11 0q-6.42-6.94-8.12-10c-1.7-3-4.75-6.53-4.29-7-3.38-1.82-21-9.39-24.67-9.5-1.93-.07-16.94-24.85-16.33-24.75 4.84.79 27.74 14.92 41.79 22.24q1.69.89 9.3 4.59-3.94-7.89-5.8-10.76c-4-6.2-7.37-9.64-8.81-12.37-3.14-6-7.17-7.38-5.66-10.71 2.03-4.44 16.39-6.04 16.52-6.21z" fill="#ed8944" fill-rule="evenodd"/><path d="M791 340.52l39.28 13.62c6.85-.53 14 9.37 9 15.2-.47.88-1.12 2.12-1.57 3-.53 1.05-1.09 2.21-1.52 3.29-.2.64-.69 1.54-.43 2.17a33.15 33.15 0 00-4.11 0c-3.36-3.64-6.75-7.39-9.2-11.71-.57-.85-1.42-2-2-2.89-.32-.57-1.4-1.8-1.2-2.36a192.55 192.55 0 00-19.41-8.12c-1.09-.37-2.28-.76-3.4-1.05s-1.83 0-2.66-.89c-.38-.39-.78-.87-1.12-1.3-.41-.09-1.56-8.75-1.66-8.96z" fill="#d07151" fill-rule="evenodd"/><path class="cls-51" d="M820 317.8c5.3 8.46 10.74 17.27 15.71 25.93 7.39 12 11.22 21.73 8.06 35.06-1.6.24-6.15 0-8.21-1h-1.05l-1.35-20.48c-.52-.6-4.36-5.08-4.76-5.53-1.39-2.74-2.86-5.62-4.43-8.25-2.67-4.48-6.3-8.43-9.11-12.81 1.59-4.13 3.52-8.88 5.14-12.92z"/><path d="M760.52 260.83a43.58 43.58 0 004.32.62c3.61.38 4.6 5.08 4.73 7.88-.23-.07-.75-.24-1-.3 6.58 3.08 7 3.84 9.4 4.17 5 1.35 7.45 6.64 12.32 7.66a15.91 15.91 0 017.94 4.06q18 17 19.11 18c2.08.7 2.79-1.08 4.13 1.89a16.52 16.52 0 005.63 7.77 1.53 1.53 0 01.54 1.75c-1 3.27-12 24.11-17.1 17.22-1.75-3.09-3.91-5.46-5.36-5.73-5.87-2 2.34-3.71-9.16-10.53-9.61-4.05-.78 10.61-3.07 14.44-10.29-4.22-39-4.37-50.1-1-1.15-1.14-4.2-3.08-13.69-9.74-4.34-5.1-12.09-19.67-12.11-19.46-2.47-11.18 4.45-18.12 12.11-38.42 23.07 1.18 20 0 31.34-.23z" fill="url(#linear-gradient-22)" fill-rule="evenodd"/><path d="M764.39 261.45c3.73-.24 5.13 5 5.18 7.88-.23-.07-.75-.24-1-.3 1.25.61 5.52 2.72 6.69 3.27a6.59 6.59 0 002.71.9c5 1.35 7.45 6.64 12.32 7.66 6.93.37 21.71 17.94 26.86 21.85 1.1 1.15 3-.79 3.72 1.11 1.67 3.24 3.07 6.55 6.23 8.72 1.7 1.48-.66 4.51-1.4 6-9.41-15.19-27.93-26.77-44.42-35.45-3.46-1.82-7.28-3.72-10.81-5.41-10.15-3.89-9.43-6.6-6.89-16.38.23.08.6.14.81.15z" fill="#e5f0f5" fill-rule="evenodd"/><path d="M748.57 396.59c.37-7.17 3.27-23.49 5.85-30.81-5.46-13.63-9.57-20.22-21.17-39.68-4.94-6.6-12-24.62-9.4-35.2 1.68-2 6.53-11.17 9.81-12.79-4.18 14.31-.93 36 8.42 48.94.56 1.14 1.47.72 2.35.15 4.17-2.38 9-2.75 13.63-3.4 1 0 .84-1 .69-1.73-2.25-14.57-4.88-35.25 6.17-51.61 1.35-2 2.12-2.24 4.43-1.62 1.37 1.43 9.89 1.73 8.64 4.36-11.15 5.86-11.48 37.13-9.49 49.2.12 1.58 2 1.12 3.09 1.61l21.08 5.3a2.87 2.87 0 011.62 2.6c.46 4.59.3 14.37 4.53 25.58 7.11 6.13 19.07 17.9 38.77 26.79 17.85 7.53 44 .58 63.16-.34 9.62-1.33 19.06-3.06 11.4 9.7-21.18 30.84-18 27.82-29.53 41.78 8.25 1.78 14 2.13 9.39 8.15-3.58 3.78-26 21.31-31 23.56-5.5 4.57-40.55 15.8-46.33 14.54-6.73-.06-3.88-6.08-6.8-6.15-8.93-.46-23.6-5.3-32.11-7.31q-2.49-.91-12.33-2.11c-1.46-.25-3.56 0-4.19-1.64-1-7-10.16-45.59-10.69-67.87z" fill="url(#linear-gradient-23)" fill-rule="evenodd"/><path d="M783.32 327l9.35 2.35c1.07.22 1.85 2.3 1.69 3.87.3 4.12.81 9.24 1.19 13.36.64 2.68 2.5 8.28 3.28 11 1.27 2.2 3.5 3.18 5.42 4.62 5.49 4.44 11.06 9.13 16.89 13.11 15 11.09 32.14 15 51.16 11.38 8.55-.64 21.64-2.06 30.24-2.89 10-1.5 16.37-1.77 9.61 9.9-5.84 8.48-15.61 23.23-21.45 31.61-63.84-13.5-106.34-49.41-107.38-98.29z" fill="url(#linear-gradient-24)" fill-rule="evenodd"/><path d="M769.35 268.84a1.12 1.12 0 01.4.25l.23.21.12.1c1.5.38 3 .69 4.48 1.15a17.46 17.46 0 012.07.82l1 .47c.67.29.73.78.32 1.36-1.09 0-2.41 1.13-4 3.38l-.12.19a5.48 5.48 0 00-1.58-.71 31.57 31.57 0 01-8.45-3.89c.34-.57.68-1.14 1-1.71 1.35-2 2.13-2.24 4.43-1.62z" fill="#aa4dd7" fill-rule="evenodd"/><path d="M696.34 319.44c-21 24.33-19.42 64.67 0 70.78s40.47-4.6 46.27-9.26c-.37.84-27.24 52.33-75.41 32.73-16.84-6.86-35-23.31-35-64.13 0-54.85 64.89-99.75 65.25-100 8.36-6.76 14.53-12.65 16.51-14.43 5.09-4.58 7.84-11.06 9.47-17.63 1.2-4.81 2.38-9.62 4.59-14.11.78-1.59 1.12-3.4 2-5 2.13-4 5.67-6.76 9.34-9.28 4-2.77 8.51-2.56 12.72-.77 6.86 2.91 14.1 4.47 21.14 6.72 4.36 1.39 8.86 1.63 13.32 2.25 4.8.68 4.3.58 4.47 4.88a10.32 10.32 0 01-2.92 8c-.72.73-1.34 1.58-2 2.37 0 .68-.55 1.07-1 1.49a119.06 119.06 0 00-11 12.35 14.64 14.64 0 00-1.46 2.73 114.15 114.15 0 01-9.09 15.94c-2.25 3.21-4.23 6.58-6.22 9.95-1.31 2.24-3 4.2-4.29 6.47-4.67 6.09-52.51 53.15-56.66 58z" fill="#00273d" fill-rule="evenodd"/><path d="M752 188.33c11.85 4.5 24.11 8 36.72 9.32a2.11 2.11 0 012.14 2.47c.81 4.93-1.37 9-4.86 12.43-3.84 5.32-9.67 9.6-12.92 15.52-5 10.86-12 20.64-18.35 30.71-.07-9.4 5.84-20.76 9-29.93 6.05-15.28 9.26-25.24-10.28-33.3-5.28-2-8.77-6.07-6.36-8.5a16.09 16.09 0 014.91 1.28z" fill="#013d5f" fill-rule="evenodd"/><path d="M1041.24 200a52.24 52.24 0 0052.25-52.24c0-28.86-20.25-54.61-49.1-54.61S989 118.86 989 147.72a52.24 52.24 0 0052.24 52.28z" fill="#02fdfe" fill-rule="evenodd"/><circle cx="1041" cy="146" r="48" fill="url(#radial-gradient-2)"/><path d="M1060.87 118.37q9 5.63-1.93 22.95 7.07 5.4 7.06 8.53c0 .41-4.37 7.31-9 15.06l-.4.68-.4.67-.4.67-.4.68-.4.67c-4 6.73-7.72 13-8.72 12.71s-7.85-4.55-15.14-9.23l-1-.63c-8.62-5.54-17.56-11.53-18.14-12.4s3.12-8.23 7-15.65l.47-.89c3.75-7.11 7.56-14 7.94-14.78.08-.18 1-1 3.45-.38a66.17 66.17 0 019.2 3.24q11.76-17.54 20.74-11.9zm-2.07 4.5c-8-4.31-14.85 8.84-14.8 9.55 0 .1 2.88 1.41 5.44 3l.23.14.46.28.46.28.45.29c2.25 1.4 4.23 2.68 4.28 2.62.58-.78 9.79-12.74 3.48-16.13z" fill="#a8ffff" fill-rule="evenodd"/><path d="M1064.5 169.11a12.5 12.5 0 0112.5 12.5 12.28 12.28 0 01-1 4.82l-.18.43a52.48 52.48 0 01-10.5 7.22h-.85a12.5 12.5 0 010-25z" fill="url(#linear-gradient-25)" fill-rule="evenodd"/><path d="M1041 98a47.81 47.81 0 0117 3.09 37 37 0 11-64 35.07A48 48 0 011041 98z" fill="url(#linear-gradient-26)" fill-rule="evenodd"/><path d="M1060.87 118.37c7.19 3.31 3.22 15.68-1.93 22.95q1.05.8 2 1.56c-8.8 16.15-31.94 23.28-48.57 14.26 4-9.82 9.87-19.68 14.82-29.08 1-3.45 10.55 1.43 13 2.21 4.09-6.63 13.56-17.14 20.74-11.9zm-16.87 14c3.4 1.73 7.34 4.07 10.57 6.17a5.46 5.46 0 00.75.41c.58-.77 1.26-1.74 1.79-2.54a35.92 35.92 0 002.43-4.32c5.75-11.45-7.08-13.07-12.39-5a19.1 19.1 0 00-3.15 5.25z" fill="#edf7fc" fill-rule="evenodd"/><path d="M1147.5 82.79a10.69 10.69 0 01-1.15-1.57 63.2 63.2 0 00-59.47-29.91c-7.21.64-14.5 2.62-20.24 7a44.29 44.29 0 00-9.51 10.93c-.61.92-4 7.56-5.1 6.42s1.9-6.62 2.46-7.71A32.6 32.6 0 011066 55.54c7.59-4.79 16.76-6.65 25.73-6.6a66.85 66.85 0 0158.42 35 2.74 2.74 0 01-2.65-1.15z" fill="url(#linear-gradient-27)" fill-rule="evenodd"/><path d="M1155.33 73.64c0-.1 0-.5.27-.61a1.13 1.13 0 011 .3 3.64 3.64 0 01.4 1.72c-.12 2.73-.35 5.45-.59 8.17 0 .26-.23.89-.81.76s-.61-1.42-.6-1.85c0-1.39.3-7.05.33-8.49z" fill="url(#linear-gradient-28)" fill-rule="evenodd"/><path d="M1143.55 87.93a1.61 1.61 0 01-1.07 0q-4.12-2.83-8.17-5.78c-.24-.17-.47-.71-.17-1a1.46 1.46 0 011.32 0c1.11.69 2.1 1.49 3.17 2.22 1.46 1 3 1.94 4.43 2.92.2.14.83.58.93 1s-.33.6-.44.64z" fill="url(#linear-gradient-29)" fill-rule="evenodd"/><path d="M1119.15 370.49c-.21-2-.53-5.21-1.57-6.94a22.56 22.56 0 01-2.57-4.22l-.09-.05c-2.56-5.55-2.37-11.58-3.49-17.38-6-1.49-11 3.59-16.37 5-.42.83-4.91-.19-4.45.82.11-.23 3.92 1.48 4.18 1.49.6 0 1.39 1.3 1.79 1.69.82.79 1.7 1.53 2.51 2.34a202.27 202.27 0 0119.73 25.6 58.5 58.5 0 00.33-8.35z" fill="#602d0e" fill-rule="evenodd"/><path class="cls-74" d="M1122 384.36c.43.85.89 1.67 1.38 2.49 1.32 2.2 2.76 4.31 4.1 6.49a37.2 37.2 0 013.18 6.3c4.86 10.4 7.51 21.85 12 32.21v2.67c-1.94 5.26-4.84 13.11-12.12 10.29-4.92-.6-7.15-4.47-10.28-7.65-10.06-7.09-18.29-16-25.74-25.69-5.67-6.83-9.87-15-15.87-21.48-1.58-1.41-4.84-1.77-5.42-3.88-.23-6-4.34-13.05-2.63-18.69.62 0 1.26-.08 1.89 0 1.07.4 1.62-1 2.71-.64 6.06.41 11.88-3.56 12.65-9.84.79-3.08 4.39-4.23 5.78-7.09.78-1.12 1.07-1.15 2.07-.22a127.21 127.21 0 0110.74 11.64c3.36 4.09 6.5 8.36 9.48 12.74 1 1.49 2.07 3 3 4.54s1.75 3.24 2.55 4.89zM996.47 296.26c-6.92 1.26-12.77 9.29-9.92 16.09a2.86 2.86 0 01-.78 3.44c-4.09 5.06-6.14 11.7-7.29 18-1.2 4.6 2.13 8.48 2.37 12.85-7.79-17.55-13.61-35.74-19.73-53.95-7.75-15.73-10-30.8-6-48.15.57-2.73.7-17.55 3.44-17 4.65-.06 2.26 3.2 5.46 3.52 2.55.2 5.28.06 6.78-2.32 1.64-2.17 2-2.26 4.6-1.56 10-1.21 5.45 8.12 6.55 14.53 1.34 4.56-1 2.59-3.49 5-3.15 2.3.72 5.14-1.1 7.65-6.4 7.19-6.42 19.5 3.12 24 1.69 1.44 5.28.63 5.67 3.27 1.2 4.76 5 8.58 9.91 8.71.65 1.71 1.5 3.36 1.38 5.27-.31.21-.6.57-.93.62zM1008.28 186.3c-1.92 4.18-8.23 4.07-10.81 8.12-2.82 3.15-3.75 7.5-7.55 9.94-1.25 1.59-2.39 3.08-4.73 3.25-6.45 1.83-4.49 6-4.16 11.23-2.34 1.06-4.61-1.49-7.14-.84-5.13-.84-4.59-3.56-11.34-1.3-1.51.45-1.7 3.46-3.55 2.18a3.81 3.81 0 011.65-3.23 30.08 30.08 0 004.64-13.11 12.37 12.37 0 00-.52-4.13c-1.33-5.48-3.27-10.69-4-16.36-.1-4.66-6.63-32.93 4.47-21.49 1.15-4.17-1.41-13.95 5.13-13.43 1.3.37 1.42 1.27 1.74 2.24 2.79 5.08-3.2 22 2 23.22-.13-3.4 5.84-36.4 11.1-25.29.13 9.82-2 19.46-3 29.2l.49.13c3.6-6.92 5.39-14.82 9-21.51 2.51-4.35 4.84 1 3.81 3.93-1.64 9-5.15 19.1-3 27.86 1.88 1 3.32-1.79 5.15-2 2.93-.82 10.39-3.41 10.62 1.39zM1016.07 323.61c-.3-1.37-.66-3 0-4.27a11.12 11.12 0 001-3.77 73.07 73.07 0 012.5-9.56c1.88-.71 2.69 1.58 4.15 2.26 2.38.88 10.54 9.05 12.17 5.29 1.9-6.78 10.49-5 12.5-15.42.81-4.28 2.44-1.67 3.38-3.85a1.05 1.05 0 00-.52-1.25c-5.07-2.46-9-6.65-8.88-12.63.09-2.37 1.65-7.84 4.77-6.76.35.2 1.29.63 1.62.82 4 1.1 3.66 7.58 8 7.6 3.11-.4 2.76-4.28 4.55-6.2 1.77-2.58 3.09-5.68 2.5-9-1-2.05.57-3.32 1.73-4.62 1-.89 1-2.48 2.16-3.12.53-.38 1.33-.88 1.86-1.26.89-.16 1.4-2.47 2.13-1.83a51.56 51.56 0 01.59 9.53c-1.47.88-1.76 2.69-3 3.81a29.18 29.18 0 01-1.51 6.66c.18.51.61.47 1 .47 1.92 1 2.62 4 4 5.69.23.37.5.95.7 1.34.83.71.4 2.27.48 3.21a4.25 4.25 0 01-1.82 3.83c.29 7.6-2.75 14.63-5.6 21.5-.8 1.94-1.71 4.06-4 4.08a29.63 29.63 0 01-5.73-.11c-1.89.54-2 3.26-2.75 4.82 0 3.41 3.72 6.24 5.13 9.25h.13a.86.86 0 010 .28 252.74 252.74 0 01-24.55 8 2.91 2.91 0 01-4 .15c-5.92-3.64-12.07-8.27-14.86-15z"/><path class="cls-75" d="M1107 390.73c5.74 8.08 12.11 16.44 17.16 25 8.29 12.28 9 27.19-6 16.58-2.21-1.49-4.39-3.17-6.45-4.85-3-2.44-6-5.12-8.87-7.74a268.43 268.43 0 01-4.26-4c-8-7.32-12.53-17.88-19.86-25.69-1.58-1.42-4.84-1.76-5.42-3.88-.64-5.67-2.8-11.05-3.13-16.74-.68-2.93 2-1.5 3.46-2.11 4.67-1.42 8.19.1 11.87-4.75 7.34 9.13 14.69 18.53 21.5 28.18z"/><path d="M1011.39 328.25q34.55 22.22 34.54 12.75c0-3.14 4.06-13.37 4.37-20.89s16-19.23 14.07-33.55-19-23.6-23.95-15.5a149.51 149.51 0 00-9.81 19.72z" fill="url(#linear-gradient-30)" fill-rule="evenodd"/><path class="cls-77" d="M972.5 271.84c5.43 10.18 10 21.12 14.67 31.68l.06-.11c-3.66 4.6 1.12 8.85-1.31 12.22-6.4 8.4-9.95 20.13-5 30l-.24.46c.44-1.09-2.85-6.6-3.36-7.84a351.7 351.7 0 01-3.28-8.34c-2.07-5.46-4.09-11-5.94-16.51-2.78-8.31-5.58-16.61-8.68-24.81s-6-15.43-6-24.51a148.27 148.27 0 011.77-21.76c.52-3.61 1.21-7.19 1.72-10.8.41-3-.13-4 3.18-3.65 1 .1 1.89.48 2 1.55.32 2.4 3.25 1.59 5 1.68 2.77.17 3.93-3.32 5.9-4.2-1.51 10.74-5.72 35.98-.49 44.94zM969.07 178.13c22.39 2.17 21.18 20 6.13 33.87-.3 1.74-.72 4.25-1 6-3.25.31-5.43-3.46-8.83-1.82-1.16.27-2.42-.06-3.37.92-1.14.57-1.31 3-3 1.79-.85-.63 2.32-4.31 2.64-4.89a33.82 33.82 0 003.06-8.4 16.18 16.18 0 00.59-3.79 12.14 12.14 0 00-.34-2.68c-.51-2.18-1.49-4.21-2-6.37-.54-2.38-1.1-4.76-1.58-7.16s-.89-4.81-1.22-7.23c-.17-1.22-.31-2.44-.43-3.66-.08-.73.13-2.77-.27-3.34q4.28 6.02 9.62 6.76z"/><path d="M960.73 218c.8-2.4 7.65-3.35 9.39-1.79 3.27 2 7.26 1.6 10.91 2.66 2.77 1.38 1.65 4.57 1.9 7.07.14 3.48-3.62 2.11-5.77 1.85s-4.53-1.44-5.82.93c-1.21 3-9.28 4.73-9.79.72.27-1.27-3.67-1.82-4.5-1.25-3.29-1.88-1.86-8.86 2-9.28.89.3 1.41-.12 1.73-.91z" fill="#cb8040" fill-rule="evenodd"/><path d="M1064.56 448.51c1.2.58 2.45-.06 3.68.13 2.38 5.32 6.78 9.11 11.16 12.72q-18.57 2.83-37.12 5.42c-8.12 1.14-16.12 2.39-24.23 3.48-5.89.79-11.9 1.43-17.78 2.2l-5.59.73c1-7.07.15-14-.16-21.06 8.89 1 17.44 6.66 26.68 5.25 12.61-1.5 24.78-5.05 37.25-7.34 2.2-.13 3.88-2.61 6.11-1.53z" fill="#fedf1b" fill-rule="evenodd"/><path d="M1064.56 448.51c1.2.58 2.45-.06 3.68.13 2.38 5.32 6.78 9.11 11.16 12.72q-6.92 1.06-13.83 2.09a96.44 96.44 0 01-5.88-13.74c1.66-.47 3-2.18 4.87-1.2z" fill="#fefe02" fill-rule="evenodd"/><path d="M1087.72 347.05a52.08 52.08 0 00.43-5.46c-1.12 0-2.25.11-3.38.11-3.5 0-7-.23-10.48-.47-6.35-.43-12.71-1-19.07-.92a66.44 66.44 0 00-16.67 2.71c-4.9 1.35-9.5 2.43-14.24 0a6.84 6.84 0 01-3.81-5.2c-3.37-4.59-6.19-9.41-9.51-14.08-2-2.78-4.44-5.15-6.31-8-1-1.5-1.71-3-2.71-4.31a7.25 7.25 0 01-3.27-3.65 6.36 6.36 0 01-.52-5.81 7.71 7.71 0 01-3.4-5.36 18.48 18.48 0 00-6.14 4.18 10.91 10.91 0 00-2.79 10.39c.76 2.28.53 4-1.27 5.55-2.53 4.43-4.94 9.1-6 14.14s.12 9.28 1.78 14.14c.36 1.07.69 2.15 1 3.23 1.2 3.92-.44 8.43-3.35 11.38-3.11 3.15-3.29 2.9-2.58 7.58a38.3 38.3 0 01.57 4.8c.88 2.53 1.89 5 1.92 7.73a124 124 0 011.22 22.27c-.51 3.77-1.76 9.23-2.12 13.12 0 2.12-.85 3.95-.33 6.14a7.74 7.74 0 002.41 4c3.17 2.88 8 4.12 11.87 5.7a1.24 1.24 0 01.65.44c.08.11.11.25.2.36a1.38 1.38 0 00.52.28 2.17 2.17 0 011 2.3c-.31 2.39-1.2 4.79-1.63 7.18-.49 2.77-.85 5.55-1.18 8.34-.73 2.31 13.84 4.37 16.53 5.87 13.48 4.91 28.3-.85 41.82-3.46 4.92-.76 10.12-2.47 14.87-3.72a5.79 5.79 0 007.16-2.37c1.27-3.37-2-5.54-2.49-8.65-1.43-4.22-3.18-9.86 2.19-12a2 2 0 001.34-1.61c.09 0 .13-.1.08-.2a15.88 15.88 0 004.75-6.25c1.27-2.78.14-6.27-.06-9.21-1.22-11-2.71-22.18-5.54-32.88a21.42 21.42 0 01-.64-4.8c-.11-.75-.54-2.12.14-2.73s2.59-.52 3.46-.61c1.35-.16 2.7-.27 4-.49a11.58 11.58 0 005.88-2.49c2.32-2.08 3.12-5.32 4.31-8.2a7.63 7.63 0 012.22-2.7 7.1 7.1 0 01-2.83-6.31z" fill="url(#linear-gradient-31)" fill-rule="evenodd"/><path id="K" d="M1002 294.77a11.74 11.74 0 013.15 4.39l.16.37a58.56 58.56 0 005.26 9.45l.92 1.39a10.18 10.18 0 004 3.17l.5.24c.7.34 1.36.73 1.33 1.75-.14.59-.13 1.19-.24 1.78l-.1.38a2.57 2.57 0 00-.07.4 7.25 7.25 0 01-.26.91l-.25.67a3.6 3.6 0 00-.28 1.87c.1 2.93 1.59 5.24 3.46 7.3l.78.84a29.36 29.36 0 005.61 4.94 11.26 11.26 0 002.61 2.41l1 .69c1.09.64 1.68 1 1.76 1a5.44 5.44 0 003.9-.75 17.74 17.74 0 014.5-1.48l1.87-.4.67-.17.66-.18a6.78 6.78 0 012.05-.3c1.15-.42 2.31-.8 3.47-1.18l1.74-.57a61 61 0 006.94-2.62l.75-.36a2.31 2.31 0 011.52-.35 1.35 1.35 0 01.4 0 1.13 1.13 0 011.09-.88h.57a2.42 2.42 0 00.47-.07 4.34 4.34 0 013.3.12l.71.19a2.33 2.33 0 011 .62l.28.28.3.26a16.88 16.88 0 005.91 2.82l1.68.51.42.13c.85.27 1.71.5 2.54.8l.62.24a4.77 4.77 0 003.74.1l.25-.1a7.71 7.71 0 011.69-.53l.35-.07a13.94 13.94 0 006.88-3.29 6.38 6.38 0 013.07-1.39l.56-.11.28-.06a2.24 2.24 0 012.61 1.35 7.46 7.46 0 01.87 4.63 30.23 30.23 0 01-2.62 8.36l-.29.58a7.1 7.1 0 00-.73 2.15 5 5 0 01-1.13 2.25l-.53.66c-.17.22-.34.44-.5.67l-.15.24a15.08 15.08 0 01-3.46 3.58l-.66.53a2.35 2.35 0 00-.9 1.67 14 14 0 01-1 3.49c-27.21-1.14-55.8-6.53-72.66-22.41q-22.07-20.79-19.89-41.21a20.38 20.38 0 012.75-.83 3.92 3.92 0 001.54-.77l.2-.16a2.17 2.17 0 013 .09z" fill="url(#linear-gradient-32)" fill-rule="evenodd"/><path id="K-2" data-name="K" d="M1002 294.77c4.23 4.4 5.57 10.86 9.49 15.6 1.63 3.08 7.37 2.81 5.5 7.32-3.64 9 6.83 15 12.57 20 2.15 1.89 5 .68 7.25-.28 2.56-1.1 5.39-1.5 8.08-2.23a123.4 123.4 0 0013.14-4.38c1.83-.73 3.66-1.89 5.69-1.65 1.85.23 3.31 1.45 4.85 2.36a37.61 37.61 0 007.64 3.12 15.07 15.07 0 004.56 1 11.33 11.33 0 003.11-.48 25.35 25.35 0 005.91-2.42c1.83-1 3.3-2.43 5.45-2.78 7 .38 2.73 11 .85 14.86a18.86 18.86 0 01-7.16 10.08c-1.38 1.25-1 3.67-1.88 5.16-41.48.77-94.47-21-92.55-63.62 1.37-.64 3.07-.62 4.29-1.6a2.24 2.24 0 013.21-.06z" fill="url(#linear-gradient-33)" fill-rule="evenodd"/><path class="cls-75" d="M1031 340.81c4.54 9.13 3.24 20.68-.69 29.87-8.5 12.18-16.64-.93-13-11.13.17-4 9.07-25.2 13.74-18.74z"/><path class="cls-84" d="M1030.69 286.78c.41.43.29 1 .32 1.52-.14 3.23 4.4 5.17 6.22 2.42a4.27 4.27 0 013-2.49c1.67 4.67 5.53 5.07 9.44 7.35-1.67 5.47-4 11.4-9.8 13.56-5.36 2.3-2 9.35-9.61 3.88-4.42-2.28-7.83-6-12.36-8a33.79 33.79 0 01-10.3-7.13c-1.37-1.46-3.23-2.39-3.91-4.44-.39-1.17-1.72-1.91-2-3.16 1-2.47 8.1 4 11.26 3.49.4.06 1.07.21 1.47.26 2.75.95 4.12-2.37 6.86-2.06 2.67.47 5-1.1 6.68-3 .91-.54 1.7-2.64 2.71-2.2z"/><path class="cls-84" d="M1040.35 225.46c1.92 0 3.55 1.13 5.44 1.44 3.8.63 6.93 2.92 10.25 4.87 4.28 2.5 6.74 5.54 9.73 9.47 1.49 2 1.21 3.54 2.42 5.67a27.88 27.88 0 011.63 5c.16.64-1.06 1.66-1.1 2.32s4.34-1.8 4.37-1.36a4 4 0 01-1.79 3.41c-.86 2.57-4.31 3.1-5.21 5.83-.52.7-1.84 2.46-2.32 3.15a10.2 10.2 0 01-.84 8.39 13.86 13.86 0 01-2.18 3.64c-.81 1-.67 2.37-1.4 3.36-1.92 3.67-6 1.13-7-1.89-3.41-8.37-14.37-5-12.87 3.79a6.27 6.27 0 01.1 3.13c-2.61.35-2.64 5.1-5.59 3.85-2.8-2.33 2.29-5.74 1.7-8.68.79-3.1 4.89-2.38 3.62-7-.08-.43-.29-.86-.06-1.29 6.55-7.06 8.13-11.46 4.72-21.13-.75-3.71-4.45-7.38-3-11.21 1.81-3.74 1.83-10.65-1.54-13.4-1.41-1.15-.29-1.43.89-1.39z"/><path class="cls-85" d="M1040.36 225.24a54.4 54.4 0 015.76.75 33.26 33.26 0 018.62 2.6 32.4 32.4 0 0110.37 8.16c3 3.42 5.91 7.12 7.63 11.34a8 8 0 01.69 2.71 11 11 0 01-.43 3.13 4.4 4.4 0 01-.66 1.36c-.21.28-.94.74-1 1-.87 2.58-4.31 3.1-5.21 5.83-.49.68-1.86 2.48-2.32 3.15a10.24 10.24 0 01-.84 8.39 13.86 13.86 0 01-2.18 3.64c-.85 1.1-.71 2.61-1.59 3.68-.63-16.23 2.95-35.6-17.34-43 .57-3.54.67-8.73-2.39-11.17-.75-.21-.82-.7-.77-1.31-.02-.24.68-.31 1.66-.26z"/><path d="M1037.36 291.14c-.82 1.55-3.94 1.68-5.29.3a5.16 5.16 0 01-1.38-4.66 17.48 17.48 0 001.75-2.95 29.29 29.29 0 00.93-4.07.49.49 0 000-.27c-.22-.47-.79-1.13-.64-1.37.92-1.54 1.41-3.43 3.24-4.32.63-.3 1.16-.83 1.8-1.11a4.54 4.54 0 011.44-.1c.85 2.16 1.06 4.23-.83 6a2.51 2.51 0 01-1.1.68c-1 .21-1.22.77-1.36 1.75a19.57 19.57 0 01-1.2 4 21.56 21.56 0 01-1.12 2 1.69 1.69 0 00.48 2.34 1.85 1.85 0 002.48-1.13 7.3 7.3 0 01.57-1.34 2.35 2.35 0 012.37-1.16 2 2 0 01.78 2.66 6 6 0 00-2.9 2.78z" fill="#382844" fill-rule="evenodd"/><path d="M1039.48 285.7c-.17-1.27-.32-2.53-.53-3.79-.53-3.19 1.31-5.37 3.25-7.43a5.64 5.64 0 012.37-1.05c.32-.1.74.14 1.11.22-1.77 2.18-3.15 4.55-3 7.46.18 4 2.26 7.09 5.28 9.56a14 14 0 003.2 1.86 1.42 1.42 0 011 2.06 1.33 1.33 0 01-1.91 1 1.87 1.87 0 00-.53 0c-2.79-1-5.56-2-7.87-3.95-1.07-.91-1.19-2.1-1.53-3.27z" fill="#276760" fill-rule="evenodd"/><path d="M1072.31 265.61c2.27 2.82-.39 5.1-2 7.25a8.79 8.79 0 010 1.71c.63-.29 2-.95 2.64-1.21a1.14 1.14 0 11.82 2.06c-1.24.44-2.69.79-4 1.15l-.28.29c-.7-.11-1.9.37-2.15-.53a26.08 26.08 0 001.52-7.19c1.63-.91 1.49-3.14 3.45-3.53z" fill="#010100" fill-rule="evenodd"/><path class="cls-84" d="M1050.23 277.6c1 1.29 1.89 2.63 2.74 4a1.31 1.31 0 01-.06 1.24c-.42.31-.67.1-.9-.21l-.11-.16-.16-.25c-.37-.54-.8-1-1.22-1.56l-.4-.52c-.58-.74-1.2-1.12-2-.48l-.12.1a1.83 1.83 0 00-.63 2.44l.72 1.8a20.64 20.64 0 001.09 2.33 11.31 11.31 0 001.32 1.79l.59.68.34.4.3.33c.28.3.46.62 0 1a1.09 1.09 0 01-1.69-.45c-.45-.81-.75-1.69-1.17-2.51-.15-.3-.31-.6-.47-.89l-.76-1.32a14.4 14.4 0 01-1.25-2.71 6.86 6.86 0 010-3.06l.15-.84a1.38 1.38 0 01.5-.71l.51-.44a2.61 2.61 0 00.24-.22 1.53 1.53 0 012.5.22z"/><path class="cls-85" d="M1070.37 290.34a4.64 4.64 0 01-.46-1c-.39-1.85-.78-3.71-1.08-5.58-.25-1.49-.15-1.62 1.12-2.87.8 3.2 1.49 6.25.42 9.47z"/><path class="cls-29" d="M1272.24 233.77a1.31 1.31 0 011-2c2.2-.08 3.81-1.38 5.56-2.41a1.38 1.38 0 01.62-.25c.92 0 2.29-.41 2.66 0 .51.6.42 1.87.28 2.81a7.21 7.21 0 01-3.54 5.27c-.85.51-1.8.75-2.57-.24-.37-.73.21-1.06.66-1.27a6.54 6.54 0 003.6-4.65c.1-.15.08-.19 0-.07a15.86 15.86 0 01-2.92 1.58 29.64 29.64 0 01-2.9 1.11c-.26.7.6 1.55-.3 2-.68.3-.9-.46-1.23-.86a6.11 6.11 0 01-.92-1z"/><path d="M985.66 233.1c.27-11.42 14.66-18.15 24.32-12.92 4.65.34 6.67 9.53 9.3 5.95 3.91-3.74 16-3.84 19.73-.22 4.25 3.31 4.29 9.89 2.29 14.56a4.16 4.16 0 00.13 3.63c4.69 9.1 7.62 21.52-2.07 28.43-10.71 4-2.09 8-8.61 14.37-9.28 9.8-7.84 2.52-13.24 7.16-2.46 1.53-9.71-1-12-2.85-4.12-3.17-9.86 1.12-14.18-1.56-6.39-4.38-4.33-9.13-7.75-9.7a11.18 11.18 0 01-6.12-3.11c-6.79-5.37-6.12-13-2.38-20 .35-1.72 3.41-3.14 2.3-4.64-1.53-1.33-.58-4.3.69-5.72 2.07-2 5-1.79 7.53-2.55 1.87-1.41-1.76-7.78 0-10.79z" fill="url(#linear-gradient-34)" fill-rule="evenodd"/></svg>